<?xml version="1.0" standalone="no"?><!DOCTYPE svg PUBLIC "-//W3C//DTD SVG 1.1//EN" "http://www.w3.org/Graphics/SVG/1.1/DTD/svg11.dtd"><svg width="100%" height="100%" viewBox="0 0 1000 300" version="1.1" xmlns="http://www.w3.org/2000/svg" xmlns:xlink="http://www.w3.org/1999/xlink" xml:space="preserve" style="fill-rule:evenodd;clip-rule:evenodd;stroke-linejoin:round;stroke-miterlimit:1.41421;"><g id="Layer1"><g><path d="M1000,150c0,-82.787 -67.213,-150 -150,-150l-700,0c-82.787,0 -150,67.213 -150,150c0,82.787 67.213,150 150,150l700,0c82.787,0 150,-67.213 150,-150Z" style="fill:#318537;"/><g><path d="M198.147,186.601c0,-4.593 -1.364,-8.505 -4.091,-11.734c-2.727,-3.229 -6.136,-6.28 -10.227,-9.15c-4.09,-2.871 -8.54,-5.813 -13.348,-8.827c-4.809,-3.015 -9.258,-6.531 -13.349,-10.55c-4.09,-4.019 -7.499,-8.756 -10.226,-14.21c-2.728,-5.454 -4.091,-12.128 -4.091,-20.023c0,-7.32 1.112,-13.528 3.337,-18.623c2.225,-5.095 5.275,-9.258 9.15,-12.487c3.876,-3.23 8.469,-5.598 13.779,-7.105c5.311,-1.507 10.981,-2.261 17.009,-2.261c7.32,0 14.138,0.718 20.453,2.153c6.316,1.436 11.555,3.373 15.717,5.813l-8.397,23.898c-2.44,-1.722 -6.064,-3.301 -10.872,-4.736c-4.808,-1.435 -10.011,-2.153 -15.609,-2.153c-5.598,0 -9.904,1.148 -12.918,3.445c-3.014,2.296 -4.521,5.669 -4.521,10.119c0,4.019 1.363,7.571 4.09,10.657c2.727,3.086 6.136,6.064 10.227,8.935c4.091,2.871 8.54,5.849 13.348,8.935c4.809,3.086 9.258,6.674 13.349,10.765c4.091,4.09 7.5,8.899 10.227,14.425c2.727,5.526 4.09,12.092 4.09,19.7c0,7.607 -1.112,14.209 -3.337,19.807c-2.225,5.598 -5.382,10.227 -9.473,13.887c-4.091,3.66 -9.007,6.423 -14.748,8.289c-5.741,1.866 -12.128,2.799 -19.161,2.799c-8.9,0 -16.686,-0.861 -23.36,-2.584c-6.675,-1.722 -11.806,-3.66 -15.394,-5.813l8.827,-24.329c2.871,1.723 6.818,3.445 11.841,5.168c5.024,1.722 10.407,2.583 16.148,2.583c14.353,0 21.53,-5.598 21.53,-16.793Z" style="fill:#fff;fill-rule:nonzero;"/><path d="M330.34,99.62l-35.524,0l0,125.735l-27.128,0l0,-125.735l-35.739,0l0,-24.975l98.391,0l0,24.975Z" style="fill:#fff;fill-rule:nonzero;"/><path d="M341.751,74.645l75.354,0l0,24.975l-48.226,0l0,37.031l43.705,0l0,24.975l-43.705,0l0,38.754l49.088,0l0,24.975l-76.216,0l0,-150.71Z" style="fill:#fff;fill-rule:nonzero;"/><path d="M434.329,76.153c5.168,-1.149 10.837,-2.046 17.009,-2.692c6.172,-0.646 12.344,-0.969 18.516,-0.969c6.602,0 13.097,0.61 19.484,1.83c6.387,1.221 12.093,3.625 17.116,7.213c5.024,3.588 9.115,8.648 12.272,15.179c3.158,6.53 4.737,15.035 4.737,25.512c0,9.474 -1.328,17.511 -3.983,24.114c-2.655,6.602 -6.208,11.985 -10.657,16.147c-4.45,4.163 -9.581,7.177 -15.394,9.043c-5.813,1.866 -11.806,2.799 -17.978,2.799c-0.574,0 -1.507,0 -2.798,0c-1.292,0 -2.656,-0.036 -4.091,-0.108c-1.435,-0.072 -2.835,-0.179 -4.198,-0.323c-1.364,-0.143 -2.333,-0.287 -2.907,-0.43l0,51.887l-27.128,0l0,-149.202ZM461.457,149.139c0.861,0.287 2.476,0.538 4.844,0.753c2.369,0.216 3.983,0.323 4.844,0.323c3.158,0 6.172,-0.43 9.043,-1.291c2.871,-0.862 5.418,-2.333 7.643,-4.414c2.225,-2.081 3.983,-4.952 5.275,-8.612c1.292,-3.66 1.938,-8.289 1.938,-13.887c0,-4.736 -0.61,-8.755 -1.83,-12.057c-1.22,-3.301 -2.871,-5.92 -4.952,-7.858c-2.081,-1.938 -4.486,-3.337 -7.213,-4.198c-2.727,-0.861 -5.598,-1.292 -8.612,-1.292c-4.449,0 -8.109,0.359 -10.98,1.076l0,51.457Z" style="fill:#fff;fill-rule:nonzero;"/><path d="M583.101,202.533l24.544,0l0,-84.613l2.799,-14.64l-8.827,12.703l-14.21,10.98l-11.842,-14.425l41.553,-40.476l15.071,0l0,130.471l24.113,0l0,22.822l-73.201,0l0,-22.822Z" style="fill:#fff;fill-rule:nonzero;"/></g><g><g><g><g><circle cx="850" cy="150" r="150" style="fill:#318537;"/><clipPath id="_clip1"><circle cx="850" cy="150" r="150"/></clipPath><g clip-path="url(#_clip1)"><path d="M810.485,233.352c0,0 26.426,-63.132 74.098,-87.908c18.101,-9.408 62.252,26.883 52.302,-12.349c-2.08,-8.203 -15.877,-46.964 -3.653,-44.423c3.708,0.771 41.576,34.18 56.692,45.902c21.855,16.949 45.941,32.34 45.941,32.34c26.224,93.918 -69.713,130.78 -137.46,130.072l-87.92,-63.634Z" style="fill:#207026;"/></g></g><g><path d="M805.931,105.444c-12.08,-20.602 4.91,-33.61 21.512,-40.588c28.82,-12.113 75.496,-3.316 96.323,13.792c31.581,25.94 30.059,80.067 -3.396,120.796c-33.454,40.729 -87.89,54.609 -117.835,26.796c-12.57,-11.674 -21.611,-47.375 -4.832,-67.318c12.36,-14.692 26.539,-22.248 8.228,-53.478ZM833.714,83.075c6.486,0 11.752,5.266 11.752,11.753c0,6.486 -5.266,11.752 -11.752,11.752c-6.487,0 -11.753,-5.266 -11.753,-11.752c0,-6.487 5.266,-11.753 11.753,-11.753Z" style="fill:#ebebeb;"/><g><path d="M778.114,108.051c3.196,4.236 5.252,11.71 5.34,23.404c0.004,0.532 -3.042,68.771 -8.154,94.648c-1.703,8.926 -3.637,14.695 -5.767,14.659c-0.013,0 -0.025,-0.001 -0.037,-0.002c-0.012,0.001 -0.025,0.002 -0.037,0.002c-2.13,0.036 -4.064,-5.733 -5.768,-14.659c-5.111,-25.877 -8.158,-94.116 -8.154,-94.648c0.088,-11.694 2.144,-19.168 5.34,-23.404l-2.65,0c-1.237,0 -2.241,-1.005 -2.241,-2.242c0,-1.237 1.004,-2.241 2.241,-2.241l22.537,0c1.237,0 2.242,1.004 2.242,2.241c0,1.237 -1.005,2.242 -2.242,2.242l-2.65,0Z" style="fill:#fff;"/><path d="M769.496,59.238c-7.994,3.359 -15.987,12.26 -15.987,22.705c0,8.824 7.163,15.987 15.987,15.987c8.823,0 15.987,-7.163 15.987,-15.987c0,-10.445 -19.185,-11.352 -15.987,-22.705Z" style="fill:#b3b3b3;"/></g><circle cx="872.221" cy="199.967" r="11.353" style="fill:#b3b3b3;"/><circle cx="900.172" cy="176.206" r="11.353" style="fill:#b3b3b3;"/><path d="M905.964,147.842c3.843,4.949 10.981,5.847 15.93,2.003c4.949,-3.843 5.846,-10.981 2.003,-15.93c-3.843,-4.948 -10.981,-5.846 -15.93,-2.003c-4.949,3.844 -5.846,10.982 -2.003,15.93Z" style="fill:#b3b3b3;"/><path d="M897.858,111.244c3.844,4.949 10.982,5.847 15.93,2.003c4.949,-3.843 5.847,-10.981 2.003,-15.93c-3.843,-4.948 -10.981,-5.846 -15.93,-2.003c-4.949,3.844 -5.846,10.982 -2.003,15.93Z" style="fill:#b3b3b3;"/></g></g></g></g></g></g></svg>