<?xml version="1.0" standalone="no"?><!DOCTYPE svg PUBLIC "-//W3C//DTD SVG 1.1//EN" "http://www.w3.org/Graphics/SVG/1.1/DTD/svg11.dtd"><svg width="100%" height="100%" viewBox="0 0 1000 300" version="1.1" xmlns="http://www.w3.org/2000/svg" xmlns:xlink="http://www.w3.org/1999/xlink" xml:space="preserve" style="fill-rule:evenodd;clip-rule:evenodd;stroke-linejoin:round;stroke-miterlimit:1.41421;"><g id="Layer1"><path d="M1000,150c0,-82.787 -67.213,-150 -150,-150l-700,0c-82.787,0 -150,67.213 -150,150c0,82.787 67.213,150 150,150l700,0c82.787,0 150,-67.213 150,-150Z" style="fill:#318537;"/><g><g><g><g><circle cx="850" cy="150" r="150" style="fill:#318537;"/><clipPath id="_clip1"><circle cx="850" cy="150" r="150"/></clipPath><g clip-path="url(#_clip1)"><path d="M810.485,233.352c0,0 26.426,-63.132 74.098,-87.908c18.101,-9.408 62.252,26.883 52.302,-12.349c-2.08,-8.203 -15.877,-46.964 -3.653,-44.423c3.708,0.771 41.576,34.18 56.692,45.902c21.855,16.949 45.941,32.34 45.941,32.34c26.224,93.918 -69.713,130.78 -137.46,130.072l-87.92,-63.634Z" style="fill:#207026;"/></g></g><g><path d="M805.931,105.444c-12.08,-20.602 4.91,-33.61 21.512,-40.588c28.82,-12.113 75.496,-3.316 96.323,13.792c31.581,25.94 30.059,80.067 -3.396,120.796c-33.454,40.729 -87.89,54.609 -117.835,26.796c-12.57,-11.674 -21.611,-47.375 -4.832,-67.318c12.36,-14.692 26.539,-22.248 8.228,-53.478ZM833.714,83.075c6.486,0 11.752,5.266 11.752,11.753c0,6.486 -5.266,11.752 -11.752,11.752c-6.487,0 -11.753,-5.266 -11.753,-11.752c0,-6.487 5.266,-11.753 11.753,-11.753Z" style="fill:#ebebeb;"/><g><path d="M778.114,108.051c3.196,4.236 5.252,11.71 5.34,23.404c0.004,0.532 -3.042,68.771 -8.154,94.648c-1.703,8.926 -3.637,14.695 -5.767,14.659c-0.013,0 -0.025,-0.001 -0.037,-0.002c-0.012,0.001 -0.025,0.002 -0.037,0.002c-2.13,0.036 -4.064,-5.733 -5.768,-14.659c-5.111,-25.877 -8.158,-94.116 -8.154,-94.648c0.088,-11.694 2.144,-19.168 5.34,-23.404l-2.65,0c-1.237,0 -2.241,-1.005 -2.241,-2.242c0,-1.237 1.004,-2.241 2.241,-2.241l22.537,0c1.237,0 2.242,1.004 2.242,2.241c0,1.237 -1.005,2.242 -2.242,2.242l-2.65,0Z" style="fill:#fff;"/><path d="M769.496,59.238c-7.994,3.359 -15.987,12.26 -15.987,22.705c0,8.824 7.163,15.987 15.987,15.987c8.823,0 15.987,-7.163 15.987,-15.987c0,-10.445 -19.185,-11.352 -15.987,-22.705Z" style="fill:#b3b3b3;"/></g><circle cx="872.221" cy="199.967" r="11.353" style="fill:#b3b3b3;"/><circle cx="900.172" cy="176.206" r="11.353" style="fill:#b3b3b3;"/><path d="M905.964,147.842c3.843,4.949 10.981,5.847 15.93,2.003c4.949,-3.843 5.846,-10.981 2.003,-15.93c-3.843,-4.948 -10.981,-5.846 -15.93,-2.003c-4.949,3.844 -5.846,10.982 -2.003,15.93Z" style="fill:#b3b3b3;"/><path d="M897.858,111.244c3.844,4.949 10.982,5.847 15.93,2.003c4.949,-3.843 5.847,-10.981 2.003,-15.93c-3.843,-4.948 -10.981,-5.846 -15.93,-2.003c-4.949,3.844 -5.846,10.982 -2.003,15.93Z" style="fill:#b3b3b3;"/></g></g></g></g></g></svg>