<svg width="100%" height="100%" viewBox="0 0 1000 209" version="1.1" xmlns="http://www.w3.org/2000/svg" xmlns:xlink="http://www.w3.org/1999/xlink" xml:space="preserve" style="fill-rule:evenodd;clip-rule:evenodd;stroke-linejoin:round;stroke-miterlimit:1.41421;"><g id="Layer1"><g><g><g><g><path d="M119.406,178.74c1.999,1.332 5.332,5.331 7.998,5.998c2.666,1.333 8.664,1.333 8.664,-1.333c1.333,-5.998 -3.332,-9.997 -5.332,-10.664c-1.999,-0.666 -5.998,0 -7.998,-1.333c-1.333,2.666 -2.665,4.666 -3.332,7.332ZM121.405,171.408c-1.332,-1.333 -2.665,-1.999 -3.998,-1.999c-1.333,0 -3.999,3.332 -3.333,5.332c0.667,1.999 2,2.666 3.999,3.332c0,-2.666 1.333,-4.665 3.332,-6.665Z" style="fill:#318537;"/><path d="M148.731,199.4c1.333,0 3.333,-0.666 5.332,-1.333c2,-0.666 3.999,-1.332 5.332,-1.999c3.332,0 9.331,-0.666 9.997,1.333c2,5.332 -5.332,10.664 -9.331,10.664c-1.999,0 -3.998,0 -5.998,-0.667c-1.333,0 -3.332,-0.666 -5.332,-0.666c-1.333,-2.666 -0.666,-4.666 0,-7.332ZM146.065,206.732c-1.999,0 -4.665,0 -6.665,-1.333c-1.999,-1.333 -1.332,-5.332 0.667,-5.999c1.333,-0.666 3.999,-0.666 5.998,0c-0.666,2 -0.666,4.666 0,7.332Z" style="fill:#318537;"/></g><g><path d="M180.056,178.74c2.666,-0.667 7.331,-1.333 9.997,-2.666c2.666,-1.333 6.665,-5.999 5.332,-7.998c-3.332,-4.666 -9.997,-3.999 -11.997,-2.666c-1.999,1.999 -3.999,4.665 -6.665,5.998c0.667,3.333 1.333,5.999 3.333,7.332ZM175.39,173.408c-1.332,0.666 -3.332,0.666 -3.998,1.999c-0.667,1.333 0,5.332 1.999,5.998c1.333,0.667 3.332,0 5.332,-1.333c-2,-1.999 -3.333,-4.665 -3.333,-6.664Z" style="fill:#318537;"/><path d="M215.379,171.408c2,-1.999 4.666,-6.665 6.665,-8.664c2,-1.999 7.331,-5.332 9.331,-3.332c3.999,3.998 0.666,11.33 -2,13.329c-2.665,2 -6.664,3.333 -9.997,4.666c-1.999,-1.333 -3.332,-3.333 -3.999,-5.999ZM218.045,178.74c-1.333,1.332 -3.332,2.665 -5.332,3.332c-1.999,0 -3.998,-2.666 -3.998,-5.332c0.666,-1.999 2.665,-2.666 3.998,-3.999c1.333,2 3.333,3.999 5.332,5.999Z" style="fill:#318537;"/></g><g><path d="M232.708,138.084c1.999,-1.999 6.665,-3.999 9.331,-5.998c1.999,-2 5.331,-7.331 3.999,-8.664c-3.999,-4.666 -11.331,-1.333 -12.664,0.666c-1.999,2.666 -3.332,6.665 -5.331,8.664c0,2.666 1.999,3.999 4.665,5.332ZM226.043,134.085c-1.333,1.333 -3.332,2 -3.332,3.999c-0.667,1.333 1.999,4.666 4.665,4.666c1.999,0 3.332,-2 4.665,-3.333c-3.332,-1.333 -5.331,-2.666 -5.998,-5.332Z" style="fill:#318537;"/><path d="M266.032,124.088c1.999,-1.999 4.665,-6.665 6.665,-9.331c1.999,-1.999 7.331,-5.998 9.331,-3.999c4.665,3.999 1.332,11.331 -1.333,13.33c-2.666,1.999 -6.665,3.332 -9.998,5.332c-2.666,-0.667 -3.999,-2.666 -4.665,-5.332ZM268.698,130.753c-1.333,1.333 -2,2.666 -3.999,2.666c-1.333,0 -4.665,-2.666 -3.999,-4.666c0,-1.999 2,-2.666 3.333,-3.998c0.666,2.665 2.665,4.665 4.665,5.998Z" style="fill:#318537;"/></g><g><path d="M280.695,89.431c1.999,-1.999 6.664,-4.665 8.664,-6.665c1.999,-1.999 4.665,-7.998 3.332,-9.331c-3.999,-3.998 -11.33,-0.666 -12.663,2c-1.333,2.666 -2.666,6.665 -4.665,9.331c1.333,2.666 2.666,3.999 5.332,4.665ZM274.03,86.765c-1.333,1.333 -2.666,2.666 -3.333,4.665c0,1.333 2.666,4.666 4.666,3.999c1.999,0 2.666,-1.999 3.999,-3.999c-2,-1.333 -3.999,-2.665 -5.332,-4.665Z" style="fill:#318537;"/><path d="M312.686,72.769c1.999,-1.999 3.999,-6.665 5.998,-8.664c1.999,-2 7.331,-4.666 8.664,-3.333c3.999,4.666 0.667,10.664 -1.333,11.997c-1.999,1.333 -5.998,2.666 -7.997,4.665c-2.666,-0.666 -3.999,-1.999 -5.332,-4.665ZM316.685,79.434c-1.333,1.333 -2,3.332 -3.999,3.332c-1.333,0.667 -4.666,-1.999 -4.666,-3.999c0,-1.999 2,-3.332 3.333,-4.665c1.333,1.999 2.666,3.999 5.332,5.332Z" style="fill:#318537;"/></g><g><path d="M331.347,40.778c2.666,-1.333 7.331,-2.666 9.997,-3.999c2.666,-1.333 7.332,-5.332 6.665,-7.998c-2.666,-5.332 -10.664,-3.999 -13.329,-1.999c-2.666,1.999 -5.332,5.998 -7.998,7.998c0.666,1.999 1.999,3.998 4.665,5.998ZM325.349,35.446c-2,1.333 -3.999,1.999 -4.666,3.999c-0.666,1.999 1.333,4.665 3.999,5.332c2,0 3.333,-1.333 4.666,-2.666c-2,-2 -3.333,-3.999 -3.999,-6.665Z" style="fill:#318537;"/><path d="M367.337,34.78c2.666,-1.333 5.998,-4.666 8.664,-5.999c2.666,-1.333 8.665,-1.999 9.331,0.667c2,5.332 -3.332,10.663 -5.998,10.663c-2.666,0.667 -6.665,0 -9.331,1.333c-1.999,-1.333 -2.666,-3.999 -2.666,-6.664ZM368.004,42.777c-1.333,0.667 -3.333,2 -4.666,2c-1.333,0 -3.332,-3.333 -2.666,-5.332c0.667,-2 2.666,-2 4.666,-2.666c0,1.333 1.333,3.999 2.666,5.998Z" style="fill:#318537;"/></g><g><path d="M396.662,12.119c3.333,-0.666 7.998,0.667 11.331,0c2.665,-0.666 9.33,-2.666 8.664,-4.665c0,-5.999 -8.664,-7.998 -11.33,-7.332c-3.333,0.667 -7.332,3.333 -9.998,4.666c-1.333,2.666 -0.666,5.332 1.333,7.331ZM392.663,5.454c-1.999,0.667 -3.998,0.667 -5.998,2c-1.333,1.333 -0.666,5.332 1.333,5.998c2,0.667 3.999,0 5.998,-0.666c-1.333,-2.666 -1.999,-4.666 -1.333,-7.332Z" style="fill:#318537;"/><path d="M431.319,20.783c2.666,0 7.332,-1.999 9.998,-1.333c2.666,0 7.997,2.666 7.997,4.666c-1.333,5.998 -7.331,7.331 -9.33,7.331c-2.666,-0.666 -5.999,-2.666 -8.665,-2.666c-0.666,-2.666 -0.666,-5.332 0,-7.998ZM429.32,28.115c-2,0 -3.332,0.666 -5.332,-0.667c-1.333,-0.666 -1.999,-4.665 0,-5.998c1.333,-1.333 3.332,-0.667 5.332,-0.667c-0.667,2.666 -0.667,5.332 0,7.332Z" style="fill:#318537;"/></g><g><path d="M467.976,14.785c2.666,1.333 6.665,4.665 9.331,6.665c2.666,1.333 8.664,3.332 9.997,1.333c3.332,-5.332 -2,-11.33 -5.332,-12.663c-3.332,-1.333 -7.998,-1.333 -11.33,-2c-2,2 -2.666,3.999 -2.666,6.665ZM468.642,7.454c-1.999,-0.667 -3.999,-2 -5.998,-1.333c-1.999,0.666 -3.332,3.999 -1.999,5.998c0.666,1.333 2.665,1.333 5.331,2c0,-2.666 0.667,-4.666 2.666,-6.665Z" style="fill:#318537;"/></g></g><g><g><path d="M550.503,178.74c2,1.332 5.332,5.331 7.998,5.998c2.666,1.333 8.664,1.333 8.664,-1.333c1.333,-5.998 -3.332,-9.997 -5.331,-10.664c-2,-0.666 -5.999,0 -7.998,-1.333c-1.333,2.666 -2.666,4.666 -3.333,7.332ZM552.503,171.408c-1.333,-1.333 -2.666,-1.999 -3.999,-1.999c-1.333,0 -3.999,3.332 -3.332,5.332c0.666,1.999 1.999,2.666 3.998,3.332c0,-2.666 1.333,-4.665 3.333,-6.665Z" style="fill:#318537;"/><path d="M579.829,199.4c1.333,0 3.332,-0.666 5.331,-1.333c2,-0.666 3.999,-1.332 5.332,-1.999c3.333,0 9.331,-0.666 9.998,1.333c1.999,5.332 -5.332,10.664 -9.331,10.664c-2,0 -3.999,0 -5.999,-0.667c-1.333,0 -3.332,-0.666 -5.331,-0.666c-1.333,-2.666 -0.667,-4.666 0,-7.332ZM577.163,206.732c-2,0 -4.666,0 -6.665,-1.333c-2,-1.333 -1.333,-5.332 0.666,-5.999c1.333,-0.666 3.999,-0.666 5.999,0c-0.667,2 -0.667,4.666 0,7.332Z" style="fill:#318537;"/></g><g><path d="M611.153,178.74c2.666,-0.667 7.332,-1.333 9.997,-2.666c2.666,-1.333 6.665,-5.999 5.332,-7.998c-3.332,-4.666 -9.997,-3.999 -11.996,-2.666c-2,1.999 -3.999,4.665 -6.665,5.998c0.666,3.333 1.333,5.999 3.332,7.332ZM606.488,173.408c-1.333,0.666 -3.333,0.666 -3.999,1.999c-0.667,1.333 0,5.332 1.999,5.998c1.333,0.667 3.333,0 5.332,-1.333c-1.999,-1.999 -3.332,-4.665 -3.332,-6.664Z" style="fill:#318537;"/><path d="M646.477,171.408c1.999,-1.999 4.665,-6.665 6.665,-8.664c1.999,-1.999 7.331,-5.332 9.33,-3.332c3.999,3.998 0.667,11.33 -1.999,13.329c-2.666,2 -6.665,3.333 -9.997,4.666c-2,-1.333 -3.333,-3.333 -3.999,-5.999ZM649.143,178.74c-1.333,1.332 -3.333,2.665 -5.332,3.332c-2,0 -3.999,-2.666 -3.999,-5.332c0.666,-1.999 2.666,-2.666 3.999,-3.999c1.333,2 3.332,3.999 5.332,5.999Z" style="fill:#318537;"/></g><g><path d="M663.805,138.084c2,-1.999 6.665,-3.999 9.331,-5.998c1.999,-2 5.332,-7.331 3.999,-8.664c-3.999,-4.666 -11.33,-1.333 -12.663,0.666c-2,2.666 -3.333,6.665 -5.332,8.664c0,2.666 1.999,3.999 4.665,5.332ZM657.14,134.085c-1.333,1.333 -3.332,2 -3.332,3.999c-0.666,1.333 1.999,4.666 4.665,4.666c2,0 3.333,-2 4.666,-3.333c-3.333,-1.333 -5.332,-2.666 -5.999,-5.332Z" style="fill:#318537;"/><path d="M697.129,124.088c2,-1.999 4.666,-6.665 6.665,-9.331c2,-1.999 7.331,-5.998 9.331,-3.999c4.665,3.999 1.333,11.331 -1.333,13.33c-2.666,1.999 -6.665,3.332 -9.997,5.332c-2.666,-0.667 -3.999,-2.666 -4.666,-5.332ZM699.795,130.753c-1.333,1.333 -1.999,2.666 -3.999,2.666c-1.333,0 -4.665,-2.666 -3.999,-4.666c0,-1.999 2,-2.666 3.333,-3.998c0.666,2.665 2.666,4.665 4.665,5.998Z" style="fill:#318537;"/></g><g><path d="M711.792,89.431c1.999,-1.999 6.665,-4.665 8.664,-6.665c2,-1.999 4.666,-7.998 3.333,-9.331c-3.999,-3.998 -11.331,-0.666 -12.664,2c-1.333,2.666 -2.665,6.665 -4.665,9.331c1.333,2.666 2.666,3.999 5.332,4.665ZM705.127,86.765c-1.333,1.333 -2.666,2.666 -3.332,4.665c0,1.333 2.666,4.666 4.665,3.999c2,0 2.666,-1.999 3.999,-3.999c-1.999,-1.333 -3.999,-2.665 -5.332,-4.665Z" style="fill:#318537;"/><path d="M743.783,72.769c1.999,-1.999 3.999,-6.665 5.998,-8.664c2,-2 7.332,-4.666 8.665,-3.333c3.999,4.666 0.666,10.664 -1.333,11.997c-2,1.333 -5.999,2.666 -7.998,4.665c-2.666,-0.666 -3.999,-1.999 -5.332,-4.665ZM747.782,79.434c-1.333,1.333 -2,3.332 -3.999,3.332c-1.333,0.667 -4.665,-1.999 -4.665,-3.999c0,-1.999 1.999,-3.332 3.332,-4.665c1.333,1.999 2.666,3.999 5.332,5.332Z" style="fill:#318537;"/></g><g><path d="M762.445,40.778c2.665,-1.333 7.331,-2.666 9.997,-3.999c2.666,-1.333 7.331,-5.332 6.665,-7.998c-2.666,-5.332 -10.664,-3.999 -13.33,-1.999c-2.666,1.999 -5.332,5.998 -7.998,7.998c0.667,1.999 2,3.998 4.666,5.998ZM756.446,35.446c-1.999,1.333 -3.999,1.999 -4.665,3.999c-0.667,1.999 1.333,4.665 3.999,5.332c1.999,0 3.332,-1.333 4.665,-2.666c-1.999,-2 -3.332,-3.999 -3.999,-6.665Z" style="fill:#318537;"/><path d="M798.435,34.78c2.665,-1.333 5.998,-4.666 8.664,-5.999c2.666,-1.333 8.664,-1.999 9.331,0.667c1.999,5.332 -3.333,10.663 -5.999,10.663c-2.666,0.667 -6.665,0 -9.331,1.333c-1.999,-1.333 -2.665,-3.999 -2.665,-6.664ZM799.101,42.777c-1.333,0.667 -3.332,2 -4.665,2c-1.333,0 -3.333,-3.333 -2.666,-5.332c0.666,-2 2.666,-2 4.665,-2.666c0,1.333 1.333,3.999 2.666,5.998Z" style="fill:#318537;"/></g><g><path d="M827.76,12.119c3.332,-0.666 7.997,0.667 11.33,0c2.666,-0.666 9.331,-2.666 8.664,-4.665c0,-5.999 -8.664,-7.998 -11.33,-7.332c-3.332,0.667 -7.331,3.333 -9.997,4.666c-1.333,2.666 -0.667,5.332 1.333,7.331ZM823.761,5.454c-2,0.667 -3.999,0.667 -5.999,2c-1.332,1.333 -0.666,5.332 1.333,5.998c2,0.667 3.999,0 5.999,-0.666c-1.333,-2.666 -2,-4.666 -1.333,-7.332Z" style="fill:#318537;"/><path d="M862.417,20.783c2.666,0 7.331,-1.999 9.997,-1.333c2.666,0 7.998,2.666 7.998,4.666c-1.333,5.998 -7.332,7.331 -9.331,7.331c-2.666,-0.666 -5.998,-2.666 -8.664,-2.666c-0.667,-2.666 -0.667,-5.332 0,-7.998ZM860.417,28.115c-1.999,0 -3.332,0.666 -5.332,-0.667c-1.333,-0.666 -1.999,-4.665 0,-5.998c1.333,-1.333 3.333,-0.667 5.332,-0.667c-0.666,2.666 -0.666,5.332 0,7.332Z" style="fill:#318537;"/></g><g><path d="M899.073,14.785c2.666,1.333 6.665,4.665 9.331,6.665c2.666,1.333 8.664,3.332 9.997,1.333c3.333,-5.332 -1.999,-11.33 -5.332,-12.663c-3.332,-1.333 -7.997,-1.333 -11.33,-2c-1.999,2 -2.666,3.999 -2.666,6.665ZM899.74,7.454c-2,-0.667 -3.999,-2 -5.999,-1.333c-1.999,0.666 -3.332,3.999 -1.999,5.998c0.666,1.333 2.666,1.333 5.332,2c0,-2.666 0.666,-4.666 2.666,-6.665Z" style="fill:#318537;"/></g></g></g></g><g><g><g><circle cx="928.692" cy="104.032" r="71.308" style="fill:#318537;"/><clipPath id="_clip1"><circle cx="928.692" cy="104.032" r="71.308"/></clipPath><g clip-path="url(#_clip1)"><path d="M883.545,113.879l70.099,-53.297l100.537,79.942c19.802,73.205 -42.25,35.368 -93.408,34.816l-77.228,-61.461Z" style="fill:#207026;"/><path d="M937.654,126.694c2.063,-1.344 4.525,-2.125 7.169,-2.125c7.262,0 13.157,5.895 13.157,13.156c0,7.262 -5.895,13.157 -13.157,13.157c-7.261,0 -13.157,-5.895 -13.157,-13.157c0,-0.559 0.035,-1.111 0.103,-1.652l-31.686,-21.285c-2.175,1.59 -4.854,2.528 -7.751,2.528c-7.262,0 -13.157,-5.895 -13.157,-13.157c0,-7.261 5.895,-13.157 13.157,-13.157c2.816,0 5.427,0.887 7.568,2.397l31.869,-21.407c-0.068,-0.541 -0.103,-1.093 -0.103,-1.653c0,-7.261 5.896,-13.157 13.157,-13.157c7.262,0 13.157,5.896 13.157,13.157c0,7.262 -5.895,13.157 -13.157,13.157c-2.644,0 -5.106,-0.781 -7.169,-2.126l-32.215,21.639c0.033,0.379 0.049,0.763 0.049,1.15c0,0.306 -0.01,0.609 -0.031,0.909l32.197,21.626Z" style="fill:#fff;"/></g></g><g><g><circle cx="71.308" cy="104.032" r="71.308" style="fill:#318537;"/><clipPath id="_clip2"><circle cx="71.308" cy="104.032" r="71.308"/></clipPath><g clip-path="url(#_clip2)"><path d="M52.523,143.657c0,0 12.563,-30.012 35.225,-41.791c8.605,-4.472 29.594,12.78 24.864,-5.87c-0.989,-3.9 -7.548,-22.326 -1.736,-21.118c1.762,0.366 19.764,16.249 26.95,21.821c10.39,8.057 21.84,15.374 21.84,15.374c12.466,44.648 -33.141,62.171 -65.347,61.835l-41.796,-30.251Z" style="fill:#207026;"/></g></g><g><path d="M50.358,82.851c-5.743,-9.794 2.334,-15.978 10.227,-19.295c13.7,-5.758 35.89,-1.576 45.79,6.556c15.013,12.332 14.29,38.063 -1.614,57.425c-15.904,19.362 -41.782,25.961 -56.017,12.739c-5.976,-5.55 -10.274,-22.521 -2.297,-32.002c5.876,-6.985 12.616,-10.576 3.911,-25.423ZM63.566,72.217c3.083,0 5.587,2.504 5.587,5.587c0,3.084 -2.504,5.587 -5.587,5.587c-3.084,0 -5.587,-2.503 -5.587,-5.587c0,-3.083 2.503,-5.587 5.587,-5.587Z" style="fill:#ebebeb;"/><g><path d="M37.135,84.09c1.519,2.014 2.496,5.567 2.538,11.126c0.002,0.253 -1.446,32.693 -3.876,44.995c-0.81,4.243 -1.73,6.985 -2.742,6.968c-0.006,0 -0.012,0 -0.018,0c-0.005,0 -0.011,0 -0.017,0c-1.013,0.017 -1.932,-2.725 -2.742,-6.968c-2.43,-12.302 -3.878,-44.742 -3.876,-44.995c0.042,-5.559 1.019,-9.112 2.538,-11.126l-1.26,0c-0.588,0 -1.065,-0.477 -1.065,-1.065c0,-0.588 0.477,-1.066 1.065,-1.066l10.714,0c0.588,0 1.066,0.478 1.066,1.066c0,0.588 -0.478,1.065 -1.066,1.065l-1.259,0Z" style="fill:#fff;"/><path d="M33.037,60.885c-3.8,1.597 -7.6,5.829 -7.6,10.794c0,4.195 3.406,7.6 7.6,7.6c4.195,0 7.6,-3.405 7.6,-7.6c0,-4.965 -9.12,-5.397 -7.6,-10.794Z" style="fill:#b3b3b3;"/></g><circle cx="81.871" cy="127.786" r="5.397" style="fill:#b3b3b3;"/><circle cx="95.159" cy="116.49" r="5.397" style="fill:#b3b3b3;"/><path d="M97.913,103.007c1.827,2.352 5.22,2.779 7.573,0.952c2.352,-1.827 2.779,-5.221 0.952,-7.573c-1.827,-2.353 -5.221,-2.779 -7.573,-0.952c-2.353,1.827 -2.779,5.22 -0.952,7.573Z" style="fill:#b3b3b3;"/><path d="M94.059,85.608c1.827,2.353 5.221,2.78 7.573,0.953c2.353,-1.827 2.779,-5.221 0.952,-7.573c-1.827,-2.353 -5.22,-2.78 -7.573,-0.952c-2.352,1.827 -2.779,5.22 -0.952,7.572Z" style="fill:#b3b3b3;"/></g></g><g><circle cx="502.926" cy="104.032" r="71.308" style="fill:#318537;"/><clipPath id="_clip3"><circle cx="502.926" cy="104.032" r="71.308"/></clipPath><g clip-path="url(#_clip3)"><path d="M484.865,150.196l5.227,-94.656c0,0 29.809,-0.088 36.058,0c0.28,0.004 1.441,0.529 1.441,0.529l72.191,57.404c13.002,48.066 -37.734,69.652 -71.325,69.29l-43.592,-32.567Z" style="fill:#207026;"/></g><g><g><path d="M504.265,122.119c3.99,3.111 6.558,7.963 6.558,13.41c0,9.38 -7.615,16.996 -16.995,16.996c-9.381,0 -16.996,-7.616 -16.996,-16.996c0,-5.447 2.568,-10.299 6.558,-13.41l0,-66.579l20.875,0l0,66.579Z" style="fill:#fff;"/><path d="M500.563,123.983c3.965,2.32 6.632,6.624 6.632,11.546c0,7.377 -5.99,13.367 -13.367,13.367c-7.378,0 -13.367,-5.99 -13.367,-13.367c0,-4.922 2.666,-9.226 6.631,-11.546l0,-41.227l13.471,0l0,41.227Z" style="fill:#b3b3b3;"/></g><path d="M529.02,58.956c0,-1.885 -1.531,-3.416 -3.417,-3.416l-16.022,0c-1.885,0 -3.416,1.531 -3.416,3.416c0,1.886 1.531,3.416 3.416,3.416l16.022,0c1.886,0 3.417,-1.53 3.417,-3.416Z" style="fill:#fff;"/><clipPath id="_clip4"><path d="M529.02,58.956c0,-1.885 -1.531,-3.416 -3.417,-3.416l-16.022,0c-1.885,0 -3.416,1.531 -3.416,3.416c0,1.886 1.531,3.416 3.416,3.416l16.022,0c1.886,0 3.417,-1.53 3.417,-3.416Z"/></clipPath><g clip-path="url(#_clip4)"><g><path d="M512.984,58.993l0.546,0l0,1.978c-0.045,0.016 -0.109,0.034 -0.194,0.055c-0.084,0.02 -0.182,0.04 -0.293,0.061c-0.11,0.02 -0.231,0.037 -0.363,0.051c-0.131,0.015 -0.264,0.022 -0.4,0.022c-0.274,0 -0.523,-0.049 -0.748,-0.147c-0.226,-0.097 -0.419,-0.24 -0.58,-0.427c-0.162,-0.187 -0.286,-0.417 -0.375,-0.69c-0.088,-0.272 -0.132,-0.586 -0.132,-0.94c0,-0.354 0.05,-0.668 0.149,-0.943c0.1,-0.275 0.234,-0.506 0.403,-0.693c0.169,-0.187 0.367,-0.329 0.594,-0.427c0.227,-0.098 0.47,-0.147 0.729,-0.147c0.176,0 0.333,0.013 0.47,0.037c0.137,0.024 0.254,0.053 0.352,0.086c0.097,0.032 0.177,0.065 0.239,0.097c0.062,0.033 0.104,0.057 0.127,0.073l-0.175,0.495c-0.109,-0.077 -0.253,-0.142 -0.433,-0.192c-0.18,-0.051 -0.364,-0.077 -0.552,-0.077c-0.199,0 -0.38,0.039 -0.543,0.116c-0.164,0.078 -0.302,0.19 -0.417,0.336c-0.114,0.147 -0.204,0.325 -0.267,0.534c-0.064,0.21 -0.096,0.445 -0.096,0.705c0,0.253 0.027,0.482 0.082,0.69c0.054,0.208 0.137,0.386 0.247,0.534c0.111,0.149 0.248,0.264 0.411,0.345c0.164,0.081 0.356,0.122 0.577,0.122c0.158,0 0.292,-0.009 0.403,-0.027c0.111,-0.019 0.19,-0.036 0.239,-0.052l0,-1.575Z" style="fill:#318537;fill-rule:nonzero;"/><path d="M514.228,58.956c0,-0.362 0.05,-0.681 0.15,-0.958c0.099,-0.277 0.234,-0.508 0.405,-0.693c0.171,-0.185 0.37,-0.325 0.597,-0.418c0.227,-0.094 0.468,-0.141 0.723,-0.141c0.252,0 0.489,0.047 0.712,0.141c0.224,0.093 0.42,0.233 0.589,0.418c0.169,0.185 0.303,0.416 0.402,0.693c0.1,0.277 0.15,0.596 0.15,0.958c0,0.362 -0.05,0.682 -0.15,0.959c-0.099,0.276 -0.233,0.507 -0.402,0.692c-0.169,0.186 -0.365,0.325 -0.589,0.419c-0.223,0.093 -0.46,0.14 -0.712,0.14c-0.255,0 -0.496,-0.047 -0.723,-0.14c-0.227,-0.094 -0.426,-0.233 -0.597,-0.419c-0.171,-0.185 -0.306,-0.416 -0.405,-0.692c-0.1,-0.277 -0.15,-0.597 -0.15,-0.959ZM514.803,58.956c0,0.257 0.03,0.49 0.09,0.699c0.06,0.21 0.145,0.388 0.256,0.534c0.111,0.147 0.246,0.26 0.405,0.339c0.16,0.079 0.339,0.119 0.538,0.119c0.199,0 0.377,-0.04 0.535,-0.119c0.158,-0.079 0.292,-0.192 0.402,-0.339c0.111,-0.146 0.197,-0.324 0.257,-0.534c0.06,-0.209 0.09,-0.442 0.09,-0.699c0,-0.256 -0.03,-0.489 -0.09,-0.699c-0.06,-0.209 -0.146,-0.387 -0.257,-0.534c-0.11,-0.146 -0.244,-0.259 -0.402,-0.339c-0.158,-0.079 -0.336,-0.119 -0.535,-0.119c-0.199,0 -0.378,0.04 -0.538,0.119c-0.159,0.08 -0.294,0.193 -0.405,0.339c-0.111,0.147 -0.196,0.325 -0.256,0.534c-0.06,0.21 -0.09,0.443 -0.09,0.699Z" style="fill:#318537;fill-rule:nonzero;"/><path d="M521.266,61.074c-0.064,-0.183 -0.124,-0.363 -0.18,-0.54c-0.056,-0.177 -0.115,-0.357 -0.175,-0.54l-1.767,0l-0.355,1.08l-0.569,0c0.15,-0.447 0.291,-0.861 0.422,-1.242c0.132,-0.38 0.26,-0.742 0.386,-1.083c0.126,-0.342 0.251,-0.669 0.375,-0.98c0.123,-0.311 0.253,-0.62 0.388,-0.925l0.501,0c0.135,0.305 0.265,0.614 0.389,0.925c0.123,0.311 0.248,0.638 0.374,0.98c0.126,0.341 0.254,0.703 0.386,1.083c0.131,0.381 0.272,0.795 0.422,1.242l-0.597,0ZM520.754,59.506c-0.12,-0.354 -0.24,-0.697 -0.358,-1.029c-0.118,-0.332 -0.241,-0.65 -0.369,-0.955c-0.131,0.305 -0.256,0.623 -0.374,0.955c-0.118,0.332 -0.235,0.675 -0.352,1.029l1.453,0Z" style="fill:#318537;fill-rule:nonzero;"/><path d="M524.74,60.562l0,0.512l-2.348,0l0,-4.23l0.546,0l0,3.718l1.802,0Z" style="fill:#318537;fill-rule:nonzero;"/></g></g><path d="M516.481,69.259c0,-0.637 -0.517,-1.155 -1.155,-1.155l-12.219,0c-0.637,0 -1.154,0.518 -1.154,1.155c0,0.638 0.517,1.155 1.154,1.155l12.219,0c0.638,0 1.155,-0.517 1.155,-1.155Z" style="fill:#fff;"/><path d="M516.481,79.025c0,-0.637 -0.517,-1.155 -1.155,-1.155l-12.219,0c-0.637,0 -1.154,0.518 -1.154,1.155c0,0.637 0.517,1.155 1.154,1.155l12.219,0c0.638,0 1.155,-0.518 1.155,-1.155Z" style="fill:#fff;"/><path d="M516.481,88.791c0,-0.637 -0.517,-1.155 -1.155,-1.155l-12.219,0c-0.637,0 -1.154,0.518 -1.154,1.155c0,0.637 0.517,1.155 1.154,1.155l12.219,0c0.638,0 1.155,-0.518 1.155,-1.155Z" style="fill:#fff;"/><path d="M516.481,98.557c0,-0.638 -0.517,-1.155 -1.155,-1.155l-12.219,0c-0.637,0 -1.154,0.517 -1.154,1.155c0,0.637 0.517,1.155 1.154,1.155l12.219,0c0.638,0 1.155,-0.518 1.155,-1.155Z" style="fill:#fff;"/><path d="M516.481,108.323c0,-0.638 -0.517,-1.155 -1.155,-1.155l-12.219,0c-0.637,0 -1.154,0.517 -1.154,1.155c0,0.637 0.517,1.155 1.154,1.155l12.219,0c0.638,0 1.155,-0.518 1.155,-1.155Z" style="fill:#fff;"/><path d="M516.481,118.089c0,-0.638 -0.517,-1.155 -1.155,-1.155l-12.219,0c-0.637,0 -1.154,0.517 -1.154,1.155c0,0.637 0.517,1.155 1.154,1.155l12.219,0c0.638,0 1.155,-0.518 1.155,-1.155Z" style="fill:#fff;"/></g></g></g></g></g></svg>
