<?xml version="1.0" standalone="no"?><!DOCTYPE svg PUBLIC "-//W3C//DTD SVG 1.1//EN" "http://www.w3.org/Graphics/SVG/1.1/DTD/svg11.dtd"><svg width="100%" height="100%" viewBox="0 0 1000 300" version="1.1" xmlns="http://www.w3.org/2000/svg" xmlns:xlink="http://www.w3.org/1999/xlink" xml:space="preserve" style="fill-rule:evenodd;clip-rule:evenodd;stroke-linejoin:round;stroke-miterlimit:1.41421;"><g id="Layer1"><g><path d="M1000,150c0,-82.787 -67.213,-150 -150,-150l-700,0c-82.787,0 -150,67.213 -150,150c0,82.787 67.213,150 150,150l700,0c82.787,0 150,-67.213 150,-150Z" style="fill:#318537;"/><g><path d="M198.147,186.601c0,-4.593 -1.364,-8.505 -4.091,-11.734c-2.727,-3.229 -6.136,-6.28 -10.227,-9.15c-4.09,-2.871 -8.54,-5.813 -13.348,-8.827c-4.809,-3.015 -9.258,-6.531 -13.349,-10.55c-4.09,-4.019 -7.499,-8.756 -10.226,-14.21c-2.728,-5.454 -4.091,-12.128 -4.091,-20.023c0,-7.32 1.112,-13.528 3.337,-18.623c2.225,-5.095 5.275,-9.258 9.15,-12.487c3.876,-3.23 8.469,-5.598 13.779,-7.105c5.311,-1.507 10.981,-2.261 17.009,-2.261c7.32,0 14.138,0.718 20.453,2.153c6.316,1.436 11.555,3.373 15.717,5.813l-8.397,23.898c-2.44,-1.722 -6.064,-3.301 -10.872,-4.736c-4.808,-1.435 -10.011,-2.153 -15.609,-2.153c-5.598,0 -9.904,1.148 -12.918,3.445c-3.014,2.296 -4.521,5.669 -4.521,10.119c0,4.019 1.363,7.571 4.09,10.657c2.727,3.086 6.136,6.064 10.227,8.935c4.091,2.871 8.54,5.849 13.348,8.935c4.809,3.086 9.258,6.674 13.349,10.765c4.091,4.09 7.5,8.899 10.227,14.425c2.727,5.526 4.09,12.092 4.09,19.7c0,7.607 -1.112,14.209 -3.337,19.807c-2.225,5.598 -5.382,10.227 -9.473,13.887c-4.091,3.66 -9.007,6.423 -14.748,8.289c-5.741,1.866 -12.128,2.799 -19.161,2.799c-8.9,0 -16.686,-0.861 -23.36,-2.584c-6.675,-1.722 -11.806,-3.66 -15.394,-5.813l8.827,-24.329c2.871,1.723 6.818,3.445 11.841,5.168c5.024,1.722 10.407,2.583 16.148,2.583c14.353,0 21.53,-5.598 21.53,-16.793Z" style="fill:#fff;fill-rule:nonzero;"/><path d="M330.34,99.62l-35.524,0l0,125.735l-27.128,0l0,-125.735l-35.739,0l0,-24.975l98.391,0l0,24.975Z" style="fill:#fff;fill-rule:nonzero;"/><path d="M341.751,74.645l75.354,0l0,24.975l-48.226,0l0,37.031l43.705,0l0,24.975l-43.705,0l0,38.754l49.088,0l0,24.975l-76.216,0l0,-150.71Z" style="fill:#fff;fill-rule:nonzero;"/><path d="M434.329,76.153c5.168,-1.149 10.837,-2.046 17.009,-2.692c6.172,-0.646 12.344,-0.969 18.516,-0.969c6.602,0 13.097,0.61 19.484,1.83c6.387,1.221 12.093,3.625 17.116,7.213c5.024,3.588 9.115,8.648 12.272,15.179c3.158,6.53 4.737,15.035 4.737,25.512c0,9.474 -1.328,17.511 -3.983,24.114c-2.655,6.602 -6.208,11.985 -10.657,16.147c-4.45,4.163 -9.581,7.177 -15.394,9.043c-5.813,1.866 -11.806,2.799 -17.978,2.799c-0.574,0 -1.507,0 -2.798,0c-1.292,0 -2.656,-0.036 -4.091,-0.108c-1.435,-0.072 -2.835,-0.179 -4.198,-0.323c-1.364,-0.143 -2.333,-0.287 -2.907,-0.43l0,51.887l-27.128,0l0,-149.202ZM461.457,149.139c0.861,0.287 2.476,0.538 4.844,0.753c2.369,0.216 3.983,0.323 4.844,0.323c3.158,0 6.172,-0.43 9.043,-1.291c2.871,-0.862 5.418,-2.333 7.643,-4.414c2.225,-2.081 3.983,-4.952 5.275,-8.612c1.292,-3.66 1.938,-8.289 1.938,-13.887c0,-4.736 -0.61,-8.755 -1.83,-12.057c-1.22,-3.301 -2.871,-5.92 -4.952,-7.858c-2.081,-1.938 -4.486,-3.337 -7.213,-4.198c-2.727,-0.861 -5.598,-1.292 -8.612,-1.292c-4.449,0 -8.109,0.359 -10.98,1.076l0,51.457Z" style="fill:#fff;fill-rule:nonzero;"/><path d="M607.43,205.547c7.033,0 12.379,-2.368 16.039,-7.105c3.66,-4.736 5.49,-10.765 5.49,-18.085c0,-16.219 -8.037,-24.329 -24.113,-24.329l-12.703,0l0,-14.64l21.315,-36.17l10.334,-9.689l-14.209,1.938l-29.496,0l0,-22.822l68.895,0l0,15.287l-24.974,40.691l-7.966,5.813l0,1.077l7.966,-1.292c4.018,0.287 7.894,1.363 11.626,3.229c3.732,1.866 6.997,4.522 9.796,7.966c2.799,3.445 5.023,7.751 6.674,12.918c1.651,5.168 2.476,11.268 2.476,18.301c0,8.468 -1.184,15.788 -3.552,21.96c-2.369,6.172 -5.598,11.339 -9.689,15.502c-4.091,4.162 -8.899,7.248 -14.425,9.258c-5.526,2.009 -11.447,3.014 -17.762,3.014c-5.311,0 -10.909,-0.574 -16.793,-1.723c-5.885,-1.148 -10.55,-2.799 -13.995,-4.952l6.89,-21.529c3.014,1.578 6.315,2.87 9.904,3.875c3.588,1.005 7.679,1.507 12.272,1.507Z" style="fill:#fff;fill-rule:nonzero;"/></g><g><g><g><circle cx="850" cy="150" r="150" style="fill:#318537;"/><clipPath id="_clip1"><circle cx="850" cy="150" r="150"/></clipPath><g clip-path="url(#_clip1)"><path d="M755.031,170.713l147.456,-112.113l211.485,168.162c41.655,153.991 -88.874,74.398 -196.487,73.238l-162.454,-129.287Z" style="fill:#207026;"/><path d="M868.851,197.671c4.34,-2.828 9.52,-4.472 15.082,-4.472c15.275,0 27.676,12.401 27.676,27.676c0,15.275 -12.401,27.676 -27.676,27.676c-15.275,0 -27.676,-12.401 -27.676,-27.676c0,-1.177 0.073,-2.338 0.216,-3.476l-66.654,-44.773c-4.574,3.343 -10.211,5.317 -16.305,5.317c-15.275,0 -27.676,-12.401 -27.676,-27.676c0,-15.275 12.401,-27.677 27.676,-27.677c5.925,0 11.417,1.866 15.921,5.042l67.038,-45.031c-0.143,-1.138 -0.216,-2.299 -0.216,-3.476c0,-15.275 12.401,-27.676 27.676,-27.676c15.275,0 27.676,12.401 27.676,27.676c0,15.275 -12.401,27.676 -27.676,27.676c-5.562,0 -10.742,-1.644 -15.082,-4.472l-67.765,45.519c0.069,0.797 0.104,1.604 0.104,2.419c0,0.642 -0.022,1.28 -0.065,1.911l67.726,45.493Z" style="fill:#fff;"/></g></g></g></g></g></g></svg>