<?xml version="1.0" standalone="no"?><!DOCTYPE svg PUBLIC "-//W3C//DTD SVG 1.1//EN" "http://www.w3.org/Graphics/SVG/1.1/DTD/svg11.dtd"><svg width="100%" height="100%" viewBox="0 0 1000 300" version="1.1" xmlns="http://www.w3.org/2000/svg" xmlns:xlink="http://www.w3.org/1999/xlink" xml:space="preserve" style="fill-rule:evenodd;clip-rule:evenodd;stroke-linejoin:round;stroke-miterlimit:1.41421;"><g id="Layer1"><path d="M1000,150c0,-82.787 -67.213,-150 -150,-150l-700,0c-82.787,0 -150,67.213 -150,150c0,82.787 67.213,150 150,150l700,0c82.787,0 150,-67.213 150,-150Z" style="fill:#318537;"/><g><g><g><circle cx="850" cy="150" r="150" style="fill:#318537;"/><clipPath id="_clip1"><circle cx="850" cy="150" r="150"/></clipPath><g clip-path="url(#_clip1)"><path d="M755.031,170.713l147.456,-112.113l211.485,168.162c41.655,153.991 -88.874,74.398 -196.487,73.238l-162.454,-129.287Z" style="fill:#207026;"/><path d="M868.851,197.671c4.34,-2.828 9.52,-4.472 15.082,-4.472c15.275,0 27.676,12.401 27.676,27.676c0,15.275 -12.401,27.676 -27.676,27.676c-15.275,0 -27.676,-12.401 -27.676,-27.676c0,-1.177 0.073,-2.338 0.216,-3.476l-66.654,-44.773c-4.574,3.343 -10.211,5.317 -16.305,5.317c-15.275,0 -27.676,-12.401 -27.676,-27.676c0,-15.275 12.401,-27.677 27.676,-27.677c5.925,0 11.417,1.866 15.921,5.042l67.038,-45.031c-0.143,-1.138 -0.216,-2.299 -0.216,-3.476c0,-15.275 12.401,-27.676 27.676,-27.676c15.275,0 27.676,12.401 27.676,27.676c0,15.275 -12.401,27.676 -27.676,27.676c-5.562,0 -10.742,-1.644 -15.082,-4.472l-67.765,45.519c0.069,0.797 0.104,1.604 0.104,2.419c0,0.642 -0.022,1.28 -0.065,1.911l67.726,45.493Z" style="fill:#fff;"/></g></g></g></g></g></svg>