<?xml version="1.0" standalone="no"?><!DOCTYPE svg PUBLIC "-//W3C//DTD SVG 1.1//EN" "http://www.w3.org/Graphics/SVG/1.1/DTD/svg11.dtd"><svg width="100%" height="100%" viewBox="0 0 1000 300" version="1.1" xmlns="http://www.w3.org/2000/svg" xmlns:xlink="http://www.w3.org/1999/xlink" xml:space="preserve" style="fill-rule:evenodd;clip-rule:evenodd;stroke-linejoin:round;stroke-miterlimit:1.41421;"><g id="Layer1"><path d="M1000,150c0,-82.787 -67.213,-150 -150,-150l-700,0c-82.787,0 -150,67.213 -150,150c0,82.787 67.213,150 150,150l700,0c82.787,0 150,-67.213 150,-150Z" style="fill:#318537;"/><g><g><g><circle cx="850" cy="150" r="150" style="fill:#318537;"/><clipPath id="_clip1"><circle cx="850" cy="150" r="150"/></clipPath><g clip-path="url(#_clip1)"><path d="M812.009,247.107l10.995,-199.113c0,0 62.704,-0.185 75.85,0c0.589,0.008 3.03,1.113 3.03,1.113l151.859,120.751c27.35,101.11 -79.377,146.517 -150.036,145.756l-91.698,-68.507Z" style="fill:#207026;"/></g><g><g><path d="M852.818,188.046c8.393,6.545 13.795,16.751 13.795,28.209c0,19.731 -16.02,35.751 -35.751,35.751c-19.732,0 -35.752,-16.02 -35.752,-35.751c0,-11.458 5.402,-21.664 13.795,-28.209l0,-140.052l43.913,0l0,140.052Z" style="fill:#fff;"/><path d="M845.029,191.967c8.342,4.88 13.951,13.934 13.951,24.288c0,15.518 -12.6,28.118 -28.118,28.118c-15.519,0 -28.118,-12.6 -28.118,-28.118c0,-10.354 5.608,-19.408 13.95,-24.288l0,-86.722l28.335,0l0,86.722Z" style="fill:#b3b3b3;"/></g><path d="M904.89,55.18c0,-3.966 -3.22,-7.186 -7.186,-7.186l-33.703,0c-3.967,0 -7.186,3.22 -7.186,7.186c0,3.966 3.219,7.186 7.186,7.186l33.703,0c3.966,0 7.186,-3.22 7.186,-7.186Z" style="fill:#fff;"/><clipPath id="_clip2"><path d="M904.89,55.18c0,-3.966 -3.22,-7.186 -7.186,-7.186l-33.703,0c-3.967,0 -7.186,3.22 -7.186,7.186c0,3.966 3.219,7.186 7.186,7.186l33.703,0c3.966,0 7.186,-3.22 7.186,-7.186Z"/></clipPath><g clip-path="url(#_clip2)"><g><path d="M871.158,55.257l1.149,0l0,4.16c-0.095,0.035 -0.231,0.073 -0.408,0.116c-0.178,0.043 -0.383,0.086 -0.616,0.128c-0.233,0.043 -0.488,0.08 -0.764,0.11c-0.276,0.03 -0.557,0.045 -0.841,0.045c-0.576,0 -1.101,-0.103 -1.575,-0.309c-0.474,-0.205 -0.881,-0.505 -1.22,-0.898c-0.34,-0.394 -0.602,-0.878 -0.788,-1.451c-0.185,-0.574 -0.278,-1.233 -0.278,-1.978c0,-0.745 0.105,-1.406 0.314,-1.984c0.209,-0.578 0.491,-1.063 0.847,-1.457c0.355,-0.394 0.772,-0.694 1.249,-0.899c0.478,-0.206 0.989,-0.308 1.534,-0.308c0.371,0 0.701,0.025 0.989,0.077c0.288,0.051 0.535,0.111 0.74,0.18c0.205,0.068 0.373,0.137 0.503,0.205c0.131,0.069 0.219,0.12 0.267,0.154l-0.367,1.04c-0.229,-0.162 -0.533,-0.297 -0.912,-0.404c-0.379,-0.107 -0.766,-0.161 -1.161,-0.161c-0.418,0 -0.799,0.082 -1.143,0.244c-0.343,0.163 -0.635,0.398 -0.876,0.706c-0.241,0.309 -0.428,0.683 -0.563,1.124c-0.134,0.441 -0.201,0.935 -0.201,1.483c0,0.531 0.057,1.014 0.172,1.451c0.114,0.437 0.288,0.811 0.521,1.124c0.233,0.312 0.521,0.554 0.864,0.725c0.344,0.171 0.748,0.257 1.214,0.257c0.332,0 0.614,-0.019 0.847,-0.058c0.233,-0.038 0.401,-0.075 0.503,-0.109l0,-3.313Z" style="fill:#318537;fill-rule:nonzero;"/><path d="M873.776,55.18c0,-0.762 0.104,-1.434 0.314,-2.016c0.209,-0.582 0.493,-1.068 0.852,-1.457c0.36,-0.39 0.778,-0.683 1.256,-0.88c0.477,-0.197 0.985,-0.295 1.522,-0.295c0.529,0 1.028,0.098 1.498,0.295c0.469,0.197 0.882,0.49 1.237,0.88c0.356,0.389 0.638,0.875 0.847,1.457c0.209,0.582 0.314,1.254 0.314,2.016c0,0.762 -0.105,1.434 -0.314,2.016c-0.209,0.582 -0.491,1.068 -0.847,1.457c-0.355,0.39 -0.768,0.683 -1.237,0.88c-0.47,0.197 -0.969,0.295 -1.498,0.295c-0.537,0 -1.045,-0.098 -1.522,-0.295c-0.478,-0.197 -0.896,-0.49 -1.256,-0.88c-0.359,-0.389 -0.643,-0.875 -0.852,-1.457c-0.21,-0.582 -0.314,-1.254 -0.314,-2.016ZM874.984,55.18c0,0.539 0.063,1.029 0.189,1.47c0.127,0.441 0.306,0.816 0.539,1.124c0.233,0.308 0.517,0.546 0.853,0.713c0.335,0.166 0.712,0.25 1.131,0.25c0.418,0 0.793,-0.084 1.125,-0.25c0.332,-0.167 0.614,-0.405 0.847,-0.713c0.233,-0.308 0.412,-0.683 0.539,-1.124c0.126,-0.441 0.189,-0.931 0.189,-1.47c0,-0.539 -0.063,-1.029 -0.189,-1.47c-0.127,-0.441 -0.306,-0.816 -0.539,-1.124c-0.233,-0.308 -0.515,-0.545 -0.847,-0.712c-0.332,-0.167 -0.707,-0.251 -1.125,-0.251c-0.419,0 -0.796,0.084 -1.131,0.251c-0.336,0.167 -0.62,0.404 -0.853,0.712c-0.233,0.308 -0.412,0.683 -0.539,1.124c-0.126,0.441 -0.189,0.931 -0.189,1.47Z" style="fill:#318537;fill-rule:nonzero;"/><path d="M888.58,59.636c-0.134,-0.385 -0.261,-0.764 -0.379,-1.137c-0.119,-0.372 -0.241,-0.751 -0.367,-1.136l-3.719,0l-0.746,2.273l-1.196,0c0.315,-0.942 0.611,-1.813 0.888,-2.613c0.276,-0.801 0.547,-1.56 0.811,-2.28c0.265,-0.719 0.527,-1.406 0.788,-2.06c0.26,-0.655 0.533,-1.304 0.817,-1.946l1.054,0c0.284,0.642 0.557,1.291 0.817,1.946c0.261,0.654 0.523,1.341 0.788,2.06c0.264,0.72 0.535,1.479 0.811,2.28c0.276,0.8 0.572,1.671 0.888,2.613l-1.255,0ZM887.502,56.336c-0.253,-0.745 -0.503,-1.466 -0.752,-2.164c-0.249,-0.698 -0.507,-1.367 -0.776,-2.009c-0.276,0.642 -0.539,1.311 -0.787,2.009c-0.249,0.698 -0.496,1.419 -0.741,2.164l3.056,0Z" style="fill:#318537;fill-rule:nonzero;"/><path d="M895.887,58.557l0,1.079l-4.939,0l0,-8.899l1.149,0l0,7.82l3.79,0Z" style="fill:#318537;fill-rule:nonzero;"/></g></g><path d="M878.514,76.853c0,-1.341 -1.088,-2.43 -2.429,-2.43l-25.703,0c-1.341,0 -2.429,1.089 -2.429,2.43c0,1.341 1.088,2.429 2.429,2.429l25.703,0c1.341,0 2.429,-1.088 2.429,-2.429Z" style="fill:#fff;"/><path d="M878.514,97.396c0,-1.341 -1.088,-2.429 -2.429,-2.429l-25.703,0c-1.341,0 -2.429,1.088 -2.429,2.429c0,1.341 1.088,2.429 2.429,2.429l25.703,0c1.341,0 2.429,-1.088 2.429,-2.429Z" style="fill:#fff;"/><path d="M878.514,117.939c0,-1.341 -1.088,-2.429 -2.429,-2.429l-25.703,0c-1.341,0 -2.429,1.088 -2.429,2.429c0,1.341 1.088,2.429 2.429,2.429l25.703,0c1.341,0 2.429,-1.088 2.429,-2.429Z" style="fill:#fff;"/><path d="M878.514,138.482c0,-1.341 -1.088,-2.429 -2.429,-2.429l-25.703,0c-1.341,0 -2.429,1.088 -2.429,2.429c0,1.341 1.088,2.429 2.429,2.429l25.703,0c1.341,0 2.429,-1.088 2.429,-2.429Z" style="fill:#fff;"/><path d="M878.514,159.025c0,-1.341 -1.088,-2.429 -2.429,-2.429l-25.703,0c-1.341,0 -2.429,1.088 -2.429,2.429c0,1.341 1.088,2.429 2.429,2.429l25.703,0c1.341,0 2.429,-1.088 2.429,-2.429Z" style="fill:#fff;"/><path d="M878.514,179.568c0,-1.341 -1.088,-2.429 -2.429,-2.429l-25.703,0c-1.341,0 -2.429,1.088 -2.429,2.429c0,1.341 1.088,2.429 2.429,2.429l25.703,0c1.341,0 2.429,-1.088 2.429,-2.429Z" style="fill:#fff;"/></g></g></g></g></g></svg>