<?xml version="1.0" encoding="utf-8"?>
<!-- Generator: Adobe Illustrator 22.0.1, SVG Export Plug-In . SVG Version: 6.00 Build 0)  -->
<svg version="1.1" id="Layer_1" xmlns="http://www.w3.org/2000/svg" xmlns:xlink="http://www.w3.org/1999/xlink" x="0px" y="0px"
	 viewBox="0 0 1043 850" style="enable-background:new 0 0 1043 850;" xml:space="preserve">
<style type="text/css">
	.st0{fill:none;stroke:#417505;stroke-width:3;}
	.st1{fill:none;stroke:#417505;stroke-width:3;stroke-linecap:square;}
	.st2{fill:#34D175;}
	.st3{fill:#FFFFFF;}
	.st4{font-family:'PTSans-Bold';}
	.st5{font-size:100px;}
	.st6{letter-spacing:1;}
	.st7{font-family:'PTSans-Narrow';}
	.st8{font-size:64px;}
	.st9{fill:none;}
</style>
<title>Group 9</title>
<desc>Created with Sketch.</desc>
<g id="_x32_.-Update:-Home-Page" transform="translate(-367.000000, -2279.000000)">
	<g id="Group-9" transform="translate(199.000000, 2281.000000)">
		<path id="Path-2" class="st0" d="M646.6,460l0.4,260c0,35.9-29,65-64.9,65.1c0,0,0,0-0.1,0l-184.5,0c-32.9,0-59.6,26.7-59.6,59.6
			c0,0.9,0,1.7,0.1,2.6"/>
		
			<g id="Group-2" transform="translate(578.500000, 426.500000) scale(-1, 1) translate(-578.500000, -426.500000) translate(443.000000, 392.000000)">
			<path id="Line-2" class="st1" d="M-167.5,34.5h201"/>
			<circle id="Oval-3-Copy" class="st2" cx="69" cy="35" r="12"/>
			<circle id="Oval-4" class="st0" cx="68.5" cy="34.5" r="34.5"/>
		</g>
		<circle id="Oval" class="st0" cx="1046.5" cy="424.5" r="161.5"/>
		<circle id="Oval-2" class="st2" cx="1046.5" cy="424.5" r="133.5"/>
		<text transform="matrix(1 0 0 1 998.45 418)" class="st3 st4 st5 st6">02</text>
		<text transform="matrix(1 0 0 1 989.24 504)" class="st3 st7 st8">STEP</text>
		<path id="Line-3" class="st1" d="M1047.5,0v256.5"/>
		<circle id="Oval-3" class="st2" cx="1048" cy="263" r="12"/>
		<circle id="Oval-3_1_" class="st2" cx="886" cy="424" r="12"/>
		<rect id="Rectangle-6" x="168" class="st9" width="1043" height="847.3"/>
	</g>
</g>
</svg>
