<?xml version="1.0" encoding="utf-8"?>
<!-- Generator: Adobe Illustrator 22.0.1, SVG Export Plug-In . SVG Version: 6.00 Build 0)  -->
<svg version="1.1" id="Layer_1" xmlns="http://www.w3.org/2000/svg" xmlns:xlink="http://www.w3.org/1999/xlink" x="0px" y="0px"
	 viewBox="0 0 1043 848" style="enable-background:new 0 0 1043 848;" xml:space="preserve">
<style type="text/css">
	.st1{fill:#FFFFFF;}
	.st2{fill:#34D175;}
	.st3{font-family:'PTSans-Bold';}
	.st4{font-size:100px;}
	.st5{letter-spacing:1;}
	.st6{font-family:'PTSans-Narrow';}
	.st7{font-size:64px;}
	.st8{fill:none;stroke:#FFFFFF;stroke-width:3;stroke-linecap:square;}
	.st9{fill:none;stroke:#FFFFFF;stroke-width:3;}
	.st10{fill:none;stroke:#34D175;stroke-width:12;}
</style>
<title>05</title>
<desc>Created with Sketch.</desc>
<g id="_x32_.-Update:-Home-Page" transform="translate(-198.000000, -4824.000000)">
	<g id="_x30_5" transform="translate(200.000000, 4825.000000)">
		<path id="_x31_Line" class="st8" d="M166.5,0v276"/>
		<circle id="_x33_Circle" class="st9" cx="159.5" cy="438" r="161.5"/>
		<circle id="_x32_Dot" class="st10" cx="165" cy="276.5" r="6"/>
		<circle id="_x34_Dot" class="st10" cx="320" cy="440.5" r="6"/>
		<path id="_x35_Line" class="st8" d="M333,440h187"/>
		<circle id="_x36_Circle" class="st9" cx="554.5" cy="441" r="34.5"/>
		<circle id="_x37_Dot" class="st10" cx="555" cy="440.5" r="6"/>
		<path id="_x38_Line" class="st9" d="M555,474.5v143c0,35.9,29.1,65,65,65h191.7c35.8,0,64.9,29,65,64.8l0.3,100.2"/>
		<circle id="WhiteFill" class="st1" cx="159.5" cy="438" r="133.5"/>
		<text transform="matrix(1 0 0 1 111.45 431.5)" class="st2 st3 st4 st5">05</text>
		<text transform="matrix(1 0 0 1 102.24 516.5)" class="st2 st6 st7">STEP</text>
	</g>
</g>
</svg>
