<?xml version="1.0" encoding="utf-8"?>
<!-- Generator: Adobe Illustrator 22.0.1, SVG Export Plug-In . SVG Version: 6.00 Build 0)  -->
<svg version="1.1" id="Layer_1" xmlns="http://www.w3.org/2000/svg" xmlns:xlink="http://www.w3.org/1999/xlink" x="0px" y="0px"
	 viewBox="0 0 1043 848" style="enable-background:new 0 0 1043 848;" xml:space="preserve">
<style type="text/css">
	.st1{fill:#34D175;}
	.st2{fill:#FFFFFF;}
	.st3{font-family:'PT Sans Narrow';font-weight: 700;}
	.st4{font-size:100px;}
	.st5{letter-spacing:1;}
	.st6{font-family:'PT Sans Narrow';}
	.st7{font-size:64px;}
	.st8{fill:none;stroke:#417505;stroke-width:3;stroke-linecap:square;}
	.st9{fill:none;stroke:#417505;stroke-width:3;}
	.st10{fill:none;stroke:#34D175;stroke-width:12;}
</style>
<title>04</title>
<desc>Created with Sketch.</desc>
<g id="_x32_.-Update:-Home-Page" transform="translate(-366.000000, -3975.000000)">
	<g id="_x30_4" transform="translate(199.000000, 3977.000000)">
		<path id="_x31_Line" class="st8" d="M1046.5-1v250"/>
		<circle id="_x33_Circle" class="st9" cx="1045.5" cy="423.5" r="161.5"/>
		<circle id="_x32_Dot" class="st10" cx="1047" cy="262" r="6"/>
		<circle id="_x34_Dot" class="st10" cx="885" cy="426" r="6"/>
		<path id="_x35_Line" class="st8" d="M872,425.5H679.5"/>
		<circle id="_x36_Circle" class="st9" cx="644.5" cy="425.5" r="34.5"/>
		<circle id="_x37_Dot" class="st10" cx="644" cy="426" r="6"/>
		<path id="_x38_Line" class="st9" d="M645.6,459l0.4,260c0,35.9-29,65-64.9,65.1c0,0,0,0-0.1,0l-185.5,0
			c-32.9,0-59.6,26.7-59.6,59.6c0,0.9,0,1.7,0.1,2.6"/>
		<circle id="GreenFill" class="st1" cx="1045.5" cy="423.5" r="133.5"/>
		<text transform="matrix(1 0 0 1 997.45 417)" class="st2 st3 st4 st5">04</text>
		<text transform="matrix(1 0 0 1 988.24 503)" class="st2 st6 st7">STEP</text>
	</g>
</g>
</svg>
