<?xml version="1.0" standalone="no"?><!DOCTYPE svg PUBLIC "-//W3C//DTD SVG 1.1//EN" "http://www.w3.org/Graphics/SVG/1.1/DTD/svg11.dtd"><svg width="100%" height="100%" viewBox="0 0 884 252" version="1.1" xmlns="http://www.w3.org/2000/svg" xmlns:xlink="http://www.w3.org/1999/xlink" xml:space="preserve" style="fill-rule:evenodd;clip-rule:evenodd;stroke-linejoin:round;stroke-miterlimit:1.41421;"><g id="Layer1"><g><g><circle cx="524.056" cy="125.737" r="109.899" style="fill:#fff;"/><path d="M524.056,251.206l-0.405,-0.001l-0.406,-0.002l-0.405,-0.003l-0.404,-0.004l-0.405,-0.006l-0.404,-0.007l-0.404,-0.009l-0.403,-0.009l-0.403,-0.011l-0.403,-0.012l-0.403,-0.014l-0.402,-0.014l-0.402,-0.016l-0.401,-0.017l-0.401,-0.019l-0.401,-0.02l-0.401,-0.021l-0.4,-0.022l-0.4,-0.023l-0.4,-0.025l-0.399,-0.026l-0.399,-0.027l-0.398,-0.029l-0.399,-0.029l-0.397,-0.031l-0.398,-0.032l-0.397,-0.034l-0.397,-0.035l-0.396,-0.035l-0.396,-0.038l-0.396,-0.038l-0.396,-0.039l-0.395,-0.041l-0.394,-0.042l-0.395,-0.044l-0.394,-0.044l-0.393,-0.046l-0.393,-0.047l-0.393,-0.048l-0.393,-0.049l-0.392,-0.051l-0.391,-0.051l-0.392,-0.053l-0.391,-0.054l-0.39,-0.056l-0.391,-0.056l-0.389,-0.058l-0.39,-0.059l-0.389,-0.06l-0.388,-0.061l-0.389,-0.063l-0.387,-0.064l-0.388,-0.065l-0.387,-0.066l-0.387,-0.067l-0.386,-0.068l-0.386,-0.07l-0.385,-0.071l-0.385,-0.072l-0.385,-0.073l-0.384,-0.074l-0.384,-0.076l-0.383,-0.076l-0.383,-0.078l-0.382,-0.079l-0.382,-0.08l-0.382,-0.082l-0.381,-0.082l-0.381,-0.084l-0.38,-0.084l-0.38,-0.086l-0.38,-0.087l-0.379,-0.089l-0.378,-0.089l-0.379,-0.091l-0.377,-0.091l-0.378,-0.093l-0.377,-0.094l-0.376,-0.095l-0.376,-0.096l-0.375,-0.097l-0.375,-0.099l-0.375,-0.1l-0.374,-0.1l-0.374,-0.102l-0.373,-0.103l-0.373,-0.104l-0.372,-0.105l-0.372,-0.107l-0.371,-0.107l-0.371,-0.109l-0.37,-0.109l-0.37,-0.111l-0.37,-0.112l-0.369,-0.113l-0.368,-0.114l-0.368,-0.115l-0.368,-0.116l-0.367,-0.118l-0.366,-0.118l-0.366,-0.12l-0.366,-0.121l-0.365,-0.121l-0.364,-0.123l-0.364,-0.124l-0.364,-0.125l-0.363,-0.126l-0.362,-0.127l-0.362,-0.129l-0.362,-0.129l-0.361,-0.13l-0.36,-0.132l-0.36,-0.132l-0.36,-0.134l-0.359,-0.135l-0.358,-0.135l-0.358,-0.137l-0.358,-0.138l-0.356,-0.139l-0.357,-0.14l-0.356,-0.141l-0.355,-0.142l-0.355,-0.143l-0.354,-0.144l-0.353,-0.146l-0.354,-0.146l-0.352,-0.147l-0.352,-0.149l-0.352,-0.149l-0.351,-0.15l-0.35,-0.152l-0.35,-0.152l-0.349,-0.154l-0.349,-0.155l-0.348,-0.155l-0.348,-0.157l-0.347,-0.158l-0.346,-0.158l-0.346,-0.16l-0.346,-0.161l-0.344,-0.161l-0.345,-0.163l-0.343,-0.164l-0.343,-0.165l-0.343,-0.165l-0.342,-0.167l-0.341,-0.168l-0.341,-0.169l-0.34,-0.17l-0.34,-0.17l-0.339,-0.172l-0.338,-0.173l-0.338,-0.174l-0.337,-0.175l-0.337,-0.175l-0.336,-0.177l-0.335,-0.178l-0.335,-0.178l-0.334,-0.18l-0.334,-0.181l-0.333,-0.182l-0.332,-0.182l-0.332,-0.184l-0.331,-0.184l-0.331,-0.186l-0.33,-0.186l-0.329,-0.188l-0.329,-0.188l-0.328,-0.19l-0.328,-0.19l-0.326,-0.191l-0.327,-0.193l-0.325,-0.193l-0.325,-0.194l-0.324,-0.195l-0.324,-0.196l-0.323,-0.197l-0.323,-0.198l-0.321,-0.199l-0.321,-0.2l-0.321,-0.201l-0.32,-0.202l-0.319,-0.203l-0.318,-0.203l-0.318,-0.205l-0.318,-0.205l-0.316,-0.207l-0.316,-0.207l-0.315,-0.208l-0.315,-0.209l-0.314,-0.21l-0.313,-0.211l-0.313,-0.212l-0.311,-0.213l-0.312,-0.214l-0.31,-0.215l-0.31,-0.215l-0.309,-0.217l-0.309,-0.217l-0.308,-0.218l-0.307,-0.22l-0.306,-0.22l-0.306,-0.221l-0.305,-0.222l-0.305,-0.222l-0.303,-0.224l-0.303,-0.224l-0.303,-0.226l-0.301,-0.226l-0.301,-0.227l-0.3,-0.229l-0.3,-0.229l-0.299,-0.229l-0.298,-0.231l-0.297,-0.232l-0.297,-0.232l-0.296,-0.233l-0.295,-0.235l-0.294,-0.235l-0.294,-0.236l-0.293,-0.236l-0.293,-0.238l-0.291,-0.239l-0.291,-0.239l-0.29,-0.24l-0.29,-0.241l-0.288,-0.242l-0.288,-0.243l-0.288,-0.244l-0.286,-0.244l-0.286,-0.245l-0.285,-0.247l-0.284,-0.247l-0.283,-0.247l-0.283,-0.249l-0.282,-0.25l-0.281,-0.25l-0.281,-0.251l-0.28,-0.252l-0.279,-0.253l-0.278,-0.253l-0.277,-0.255l-0.277,-0.255l-0.276,-0.256l-0.275,-0.257l-0.274,-0.258l-0.274,-0.258l-0.273,-0.26l-0.272,-0.26l-0.271,-0.261l-0.27,-0.262l-0.27,-0.262l-0.269,-0.264l-0.268,-0.264l-0.267,-0.265l-0.267,-0.265l-0.266,-0.267l-0.265,-0.267l-0.264,-0.268l-0.263,-0.269l-0.263,-0.27l-0.262,-0.27l-0.26,-0.272l-0.261,-0.272l-0.259,-0.273l-0.258,-0.273l-0.258,-0.275l-0.257,-0.275l-0.256,-0.276l-0.255,-0.276l-0.255,-0.278l-0.254,-0.278l-0.252,-0.279l-0.252,-0.28l-0.251,-0.28l-0.251,-0.281l-0.249,-0.282l-0.249,-0.283l-0.248,-0.283l-0.247,-0.285l-0.246,-0.285l-0.245,-0.285l-0.245,-0.287l-0.243,-0.287l-0.243,-0.288l-0.242,-0.289l-0.241,-0.289l-0.24,-0.29l-0.24,-0.291l-0.238,-0.292l-0.238,-0.292l-0.237,-0.293l-0.236,-0.294l-0.235,-0.294l-0.234,-0.296l-0.233,-0.296l-0.233,-0.296l-0.231,-0.298l-0.231,-0.298l-0.23,-0.299l-0.229,-0.299l-0.228,-0.3l-0.227,-0.301l-0.226,-0.302l-0.226,-0.302l-0.224,-0.303l-0.224,-0.304l-0.223,-0.304l-0.222,-0.305l-0.221,-0.306l-0.22,-0.306l-0.219,-0.308l-0.218,-0.307l-0.218,-0.309l-0.216,-0.309l-0.216,-0.31l-0.214,-0.311l-0.214,-0.311l-0.213,-0.312l-0.212,-0.312l-0.211,-0.314l-0.21,-0.314l-0.209,-0.314l-0.208,-0.315l-0.208,-0.316l-0.206,-0.317l-0.206,-0.317l-0.204,-0.318l-0.204,-0.318l-0.203,-0.32l-0.201,-0.319l-0.201,-0.321l-0.2,-0.321l-0.199,-0.322l-0.198,-0.322l-0.197,-0.323l-0.196,-0.324l-0.195,-0.324l-0.194,-0.325l-0.194,-0.326l-0.192,-0.326l-0.191,-0.327l-0.191,-0.327l-0.189,-0.328l-0.188,-0.329l-0.188,-0.329l-0.186,-0.33l-0.186,-0.331l-0.185,-0.331l-0.183,-0.332l-0.183,-0.332l-0.181,-0.333l-0.181,-0.334l-0.18,-0.334l-0.179,-0.335l-0.177,-0.336l-0.177,-0.336l-0.176,-0.336l-0.175,-0.337l-0.173,-0.338l-0.173,-0.339l-0.172,-0.339l-0.171,-0.339l-0.17,-0.34l-0.168,-0.341l-0.168,-0.342l-0.167,-0.342l-0.166,-0.342l-0.164,-0.343l-0.164,-0.344l-0.163,-0.344l-0.162,-0.345l-0.16,-0.345l-0.16,-0.346l-0.159,-0.347l-0.158,-0.347l-0.156,-0.347l-0.156,-0.348l-0.154,-0.349l-0.154,-0.349l-0.152,-0.35l-0.152,-0.351l-0.15,-0.351l-0.15,-0.351l-0.148,-0.352l-0.147,-0.353l-0.147,-0.353l-0.145,-0.354l-0.144,-0.354l-0.143,-0.354l-0.142,-0.356l-0.141,-0.356l-0.14,-0.356l-0.139,-0.357l-0.138,-0.357l-0.137,-0.358l-0.136,-0.358l-0.134,-0.359l-0.134,-0.36l-0.133,-0.36l-0.131,-0.36l-0.13,-0.361l-0.13,-0.362l-0.128,-0.362l-0.127,-0.362l-0.126,-0.364l-0.125,-0.363l-0.124,-0.364l-0.123,-0.365l-0.122,-0.365l-0.12,-0.365l-0.12,-0.366l-0.119,-0.367l-0.117,-0.367l-0.116,-0.367l-0.115,-0.368l-0.114,-0.369l-0.113,-0.369l-0.112,-0.369l-0.111,-0.37l-0.11,-0.37l-0.108,-0.371l-0.108,-0.372l-0.106,-0.371l-0.105,-0.373l-0.104,-0.372l-0.103,-0.374l-0.102,-0.373l-0.101,-0.374l-0.099,-0.375l-0.099,-0.375l-0.097,-0.375l-0.096,-0.376l-0.095,-0.377l-0.094,-0.377l-0.093,-0.377l-0.092,-0.378l-0.09,-0.378l-0.09,-0.378l-0.088,-0.38l-0.087,-0.379l-0.086,-0.38l-0.085,-0.38l-0.083,-0.381l-0.083,-0.381l-0.081,-0.382l-0.08,-0.382l-0.079,-0.383l-0.078,-0.383l-0.077,-0.383l-0.075,-0.384l-0.074,-0.384l-0.074,-0.384l-0.072,-0.385l-0.07,-0.386l-0.07,-0.386l-0.068,-0.386l-0.068,-0.386l-0.066,-0.387l-0.065,-0.388l-0.063,-0.388l-0.063,-0.388l-0.061,-0.389l-0.06,-0.389l-0.059,-0.389l-0.058,-0.39l-0.057,-0.39l-0.055,-0.391l-0.054,-0.391l-0.053,-0.391l-0.052,-0.392l-0.05,-0.392l-0.05,-0.392l-0.048,-0.393l-0.047,-0.393l-0.045,-0.394l-0.045,-0.394l-0.043,-0.394l-0.042,-0.395l-0.041,-0.395l-0.039,-0.395l-0.039,-0.396l-0.037,-0.396l-0.036,-0.396l-0.034,-0.397l-0.034,-0.397l-0.032,-0.398l-0.031,-0.398l-0.03,-0.398l-0.028,-0.399l-0.027,-0.399l-0.026,-0.399l-0.025,-0.399l-0.024,-0.4l-0.022,-0.4l-0.021,-0.401l-0.019,-0.401l-0.019,-0.401l-0.017,-0.402l-0.016,-0.402l-0.015,-0.402l-0.013,-0.402l-0.012,-0.403l-0.011,-0.403l-0.01,-0.404l-0.008,-0.403l-0.007,-0.405l-0.006,-0.404l-0.004,-0.405l-0.004,-0.405l-0.002,-0.405l0,-0.406l0,-0.405l0.002,-0.405l0.004,-0.405l0.004,-0.405l0.006,-0.404l0.007,-0.405l0.008,-0.403l0.01,-0.404l0.011,-0.403l0.012,-0.403l0.013,-0.402l0.015,-0.402l0.016,-0.402l0.017,-0.402l0.019,-0.401l0.019,-0.401l0.021,-0.401l0.022,-0.4l0.024,-0.4l0.025,-0.399l0.026,-0.4l0.027,-0.398l0.028,-0.399l0.03,-0.398l0.031,-0.398l0.032,-0.398l0.034,-0.397l0.034,-0.397l0.036,-0.396l0.037,-0.396l0.039,-0.396l0.039,-0.395l0.041,-0.395l0.042,-0.395l0.043,-0.394l0.045,-0.394l0.045,-0.394l0.047,-0.393l0.048,-0.393l0.05,-0.392l0.05,-0.392l0.052,-0.392l0.053,-0.391l0.054,-0.391l0.055,-0.391l0.057,-0.39l0.058,-0.39l0.059,-0.389l0.06,-0.389l0.061,-0.389l0.063,-0.388l0.063,-0.388l0.065,-0.388l0.066,-0.387l0.068,-0.386l0.068,-0.386l0.07,-0.386l0.07,-0.386l0.072,-0.385l0.074,-0.384l0.074,-0.384l0.075,-0.384l0.077,-0.384l0.078,-0.382l0.079,-0.383l0.08,-0.382l0.081,-0.382l0.083,-0.381l0.083,-0.381l0.085,-0.38l0.086,-0.38l0.087,-0.379l0.088,-0.38l0.09,-0.378l0.09,-0.378l0.092,-0.378l0.093,-0.377l0.094,-0.377l0.095,-0.377l0.096,-0.376l0.097,-0.375l0.099,-0.375l0.099,-0.375l0.101,-0.374l0.102,-0.373l0.103,-0.374l0.104,-0.372l0.105,-0.373l0.106,-0.371l0.108,-0.372l0.108,-0.371l0.11,-0.37l0.111,-0.37l0.112,-0.369l0.113,-0.369l0.114,-0.369l0.115,-0.368l0.116,-0.367l0.117,-0.367l0.119,-0.367l0.12,-0.366l0.12,-0.365l0.122,-0.365l0.123,-0.365l0.124,-0.364l0.125,-0.363l0.126,-0.364l0.127,-0.362l0.128,-0.362l0.13,-0.362l0.13,-0.361l0.131,-0.36l0.133,-0.36l0.134,-0.36l0.134,-0.359l0.136,-0.358l0.137,-0.358l0.138,-0.357l0.139,-0.357l0.14,-0.356l0.141,-0.356l0.142,-0.356l0.143,-0.354l0.144,-0.354l0.145,-0.354l0.147,-0.353l0.147,-0.353l0.148,-0.352l0.15,-0.351l0.15,-0.351l0.152,-0.351l0.152,-0.35l0.154,-0.349l0.154,-0.349l0.156,-0.348l0.156,-0.347l0.158,-0.347l0.159,-0.347l0.16,-0.346l0.16,-0.345l0.162,-0.345l0.163,-0.344l0.164,-0.344l0.164,-0.343l0.166,-0.342l0.167,-0.342l0.168,-0.342l0.168,-0.341l0.17,-0.34l0.171,-0.339l0.172,-0.339l0.173,-0.339l0.173,-0.338l0.175,-0.337l0.176,-0.336l0.177,-0.336l0.177,-0.336l0.179,-0.335l0.18,-0.334l0.181,-0.334l0.181,-0.333l0.183,-0.332l0.183,-0.332l0.185,-0.331l0.186,-0.331l0.186,-0.33l0.188,-0.329l0.188,-0.329l0.189,-0.328l0.191,-0.327l0.191,-0.327l0.192,-0.326l0.194,-0.326l0.194,-0.325l0.195,-0.324l0.196,-0.324l0.197,-0.323l0.198,-0.322l0.199,-0.322l0.2,-0.321l0.201,-0.321l0.201,-0.319l0.203,-0.32l0.204,-0.318l0.204,-0.318l0.206,-0.317l0.206,-0.317l0.208,-0.316l0.208,-0.315l0.209,-0.314l0.21,-0.314l0.211,-0.314l0.212,-0.312l0.213,-0.312l0.214,-0.311l0.214,-0.311l0.216,-0.31l0.216,-0.309l0.218,-0.309l0.218,-0.307l0.219,-0.308l0.22,-0.306l0.221,-0.306l0.222,-0.305l0.223,-0.304l0.224,-0.304l0.224,-0.303l0.226,-0.302l0.226,-0.302l0.227,-0.301l0.228,-0.3l0.229,-0.299l0.23,-0.299l0.231,-0.298l0.231,-0.298l0.233,-0.296l0.233,-0.296l0.234,-0.296l0.235,-0.294l0.236,-0.294l0.237,-0.293l0.238,-0.292l0.238,-0.292l0.24,-0.291l0.24,-0.29l0.241,-0.289l0.242,-0.289l0.243,-0.288l0.243,-0.287l0.245,-0.287l0.245,-0.285l0.246,-0.285l0.247,-0.285l0.248,-0.283l0.249,-0.283l0.249,-0.282l0.251,-0.281l0.251,-0.28l0.252,-0.28l0.252,-0.279l0.254,-0.278l0.255,-0.278l0.255,-0.276l0.256,-0.276l0.257,-0.275l0.258,-0.275l0.258,-0.273l0.259,-0.273l0.261,-0.272l0.26,-0.272l0.262,-0.27l0.263,-0.27l0.263,-0.269l0.264,-0.268l0.265,-0.267l0.266,-0.267l0.267,-0.265l0.267,-0.265l0.268,-0.264l0.269,-0.264l0.27,-0.262l0.27,-0.262l0.271,-0.261l0.272,-0.26l0.273,-0.26l0.274,-0.258l0.274,-0.258l0.275,-0.257l0.276,-0.256l0.277,-0.255l0.277,-0.255l0.278,-0.253l0.279,-0.253l0.28,-0.252l0.281,-0.251l0.281,-0.25l0.282,-0.25l0.283,-0.249l0.283,-0.247l0.284,-0.247l0.285,-0.247l0.286,-0.245l0.286,-0.244l0.288,-0.244l0.288,-0.243l0.288,-0.242l0.29,-0.241l0.29,-0.24l0.291,-0.239l0.291,-0.239l0.293,-0.238l0.293,-0.236l0.294,-0.236l0.294,-0.235l0.295,-0.235l0.296,-0.233l0.297,-0.232l0.297,-0.232l0.298,-0.231l0.299,-0.229l0.3,-0.229l0.3,-0.229l0.301,-0.227l0.301,-0.226l0.303,-0.226l0.303,-0.224l0.303,-0.224l0.305,-0.222l0.305,-0.222l0.306,-0.221l0.306,-0.22l0.307,-0.22l0.308,-0.218l0.309,-0.217l0.309,-0.217l0.31,-0.215l0.31,-0.215l0.312,-0.214l0.311,-0.213l0.313,-0.212l0.313,-0.211l0.314,-0.21l0.315,-0.209l0.315,-0.208l0.316,-0.207l0.316,-0.207l0.318,-0.205l0.318,-0.205l0.318,-0.203l0.319,-0.203l0.32,-0.202l0.321,-0.201l0.321,-0.2l0.321,-0.199l0.323,-0.198l0.323,-0.197l0.324,-0.196l0.324,-0.195l0.325,-0.194l0.325,-0.193l0.327,-0.193l0.326,-0.191l0.328,-0.19l0.328,-0.19l0.329,-0.188l0.329,-0.188l0.33,-0.186l0.331,-0.186l0.331,-0.184l0.332,-0.184l0.332,-0.182l0.333,-0.182l0.334,-0.181l0.334,-0.18l0.335,-0.178l0.335,-0.178l0.336,-0.177l0.337,-0.175l0.337,-0.175l0.338,-0.174l0.338,-0.173l0.339,-0.172l0.34,-0.17l0.34,-0.17l0.341,-0.169l0.341,-0.168l0.342,-0.167l0.343,-0.165l0.343,-0.165l0.343,-0.164l0.345,-0.163l0.344,-0.161l0.346,-0.161l0.346,-0.16l0.346,-0.158l0.347,-0.158l0.348,-0.157l0.348,-0.155l0.349,-0.155l0.349,-0.154l0.35,-0.152l0.35,-0.152l0.351,-0.15l0.352,-0.149l0.352,-0.149l0.352,-0.147l0.354,-0.146l0.353,-0.146l0.354,-0.144l0.355,-0.143l0.355,-0.142l0.356,-0.141l0.357,-0.14l0.356,-0.139l0.358,-0.138l0.358,-0.137l0.358,-0.135l0.359,-0.135l0.36,-0.134l0.36,-0.132l0.36,-0.132l0.361,-0.13l0.362,-0.129l0.362,-0.129l0.362,-0.127l0.363,-0.126l0.364,-0.125l0.364,-0.124l0.364,-0.123l0.365,-0.121l0.366,-0.121l0.366,-0.12l0.366,-0.118l0.367,-0.118l0.368,-0.116l0.368,-0.115l0.368,-0.114l0.369,-0.113l0.37,-0.112l0.37,-0.111l0.37,-0.109l0.371,-0.109l0.371,-0.107l0.372,-0.107l0.372,-0.105l0.373,-0.104l0.373,-0.103l0.374,-0.102l0.374,-0.1l0.375,-0.1l0.375,-0.099l0.375,-0.097l0.376,-0.096l0.376,-0.095l0.377,-0.094l0.378,-0.093l0.377,-0.092l0.379,-0.09l0.378,-0.089l0.379,-0.089l0.38,-0.087l0.38,-0.086l0.38,-0.084l0.381,-0.084l0.381,-0.082l0.382,-0.082l0.382,-0.08l0.382,-0.079l0.383,-0.078l0.383,-0.076l0.384,-0.076l0.384,-0.074l0.385,-0.073l0.385,-0.072l0.385,-0.071l0.386,-0.07l0.386,-0.068l0.387,-0.067l0.387,-0.066l0.388,-0.065l0.387,-0.064l0.389,-0.063l0.388,-0.061l0.389,-0.06l0.39,-0.059l0.389,-0.058l0.391,-0.056l0.39,-0.056l0.391,-0.054l0.392,-0.053l0.391,-0.051l0.392,-0.051l0.393,-0.049l0.393,-0.048l0.393,-0.047l0.393,-0.046l0.394,-0.044l0.395,-0.044l0.394,-0.042l0.395,-0.041l0.396,-0.039l0.396,-0.038l0.396,-0.038l0.396,-0.035l0.397,-0.035l0.397,-0.034l0.398,-0.032l0.397,-0.031l0.399,-0.029l0.398,-0.029l0.399,-0.027l0.399,-0.026l0.4,-0.025l0.4,-0.023l0.4,-0.022l0.401,-0.021l0.401,-0.02l0.401,-0.019l0.401,-0.017l0.402,-0.016l0.402,-0.014l0.403,-0.014l0.403,-0.012l0.403,-0.011l0.403,-0.009l0.404,-0.009l0.404,-0.007l0.405,-0.006l0.404,-0.004l0.405,-0.003l0.406,-0.002l0.405,-0.001l0.406,0.001l0.405,0.002l0.405,0.003l0.405,0.004l0.404,0.006l0.404,0.007l0.404,0.009l0.403,0.009l0.404,0.011l0.402,0.012l0.403,0.014l0.402,0.014l0.402,0.016l0.402,0.017l0.401,0.019l0.401,0.02l0.4,0.021l0.4,0.022l0.4,0.023l0.4,0.025l0.399,0.026l0.399,0.027l0.399,0.029l0.398,0.029l0.398,0.031l0.397,0.032l0.397,0.034l0.397,0.035l0.397,0.035l0.396,0.038l0.395,0.038l0.396,0.039l0.395,0.041l0.395,0.042l0.394,0.044l0.394,0.044l0.393,0.046l0.394,0.047l0.393,0.048l0.392,0.049l0.392,0.051l0.392,0.051l0.391,0.053l0.391,0.054l0.391,0.056l0.39,0.056l0.39,0.058l0.389,0.059l0.389,0.06l0.389,0.061l0.388,0.063l0.388,0.064l0.387,0.065l0.387,0.066l0.387,0.067l0.386,0.068l0.386,0.07l0.385,0.071l0.385,0.072l0.385,0.073l0.384,0.074l0.384,0.076l0.383,0.076l0.383,0.078l0.383,0.079l0.382,0.08l0.381,0.082l0.382,0.082l0.38,0.084l0.381,0.084l0.38,0.086l0.379,0.087l0.379,0.089l0.379,0.089l0.378,0.09l0.378,0.092l0.377,0.093l0.377,0.094l0.376,0.095l0.376,0.096l0.376,0.097l0.375,0.099l0.374,0.1l0.374,0.1l0.374,0.102l0.373,0.103l0.373,0.104l0.372,0.105l0.372,0.107l0.371,0.107l0.371,0.109l0.371,0.109l0.37,0.111l0.369,0.112l0.369,0.113l0.368,0.114l0.368,0.115l0.368,0.116l0.367,0.118l0.366,0.118l0.366,0.12l0.366,0.121l0.365,0.121l0.365,0.123l0.364,0.124l0.363,0.125l0.363,0.126l0.363,0.127l0.362,0.129l0.361,0.129l0.361,0.13l0.361,0.132l0.36,0.132l0.359,0.134l0.359,0.135l0.359,0.135l0.358,0.137l0.357,0.138l0.357,0.139l0.356,0.14l0.356,0.141l0.355,0.142l0.355,0.143l0.354,0.144l0.354,0.146l0.353,0.146l0.352,0.147l0.352,0.149l0.352,0.149l0.351,0.15l0.35,0.152l0.35,0.152l0.349,0.154l0.349,0.155l0.348,0.155l0.348,0.157l0.347,0.158l0.347,0.158l0.345,0.16l0.346,0.161l0.345,0.161l0.344,0.163l0.344,0.164l0.343,0.165l0.342,0.165l0.342,0.167l0.341,0.168l0.341,0.169l0.34,0.17l0.34,0.17l0.339,0.172l0.338,0.173l0.338,0.174l0.337,0.175l0.337,0.175l0.336,0.177l0.336,0.178l0.334,0.178l0.335,0.18l0.333,0.181l0.333,0.182l0.333,0.182l0.331,0.184l0.332,0.184l0.33,0.186l0.33,0.186l0.33,0.188l0.328,0.188l0.328,0.19l0.328,0.19l0.327,0.191l0.326,0.193l0.325,0.193l0.325,0.194l0.325,0.195l0.323,0.196l0.323,0.197l0.323,0.198l0.322,0.199l0.321,0.2l0.32,0.201l0.32,0.202l0.319,0.203l0.319,0.203l0.318,0.205l0.317,0.205l0.316,0.207l0.316,0.207l0.316,0.208l0.314,0.209l0.314,0.21l0.313,0.211l0.313,0.212l0.312,0.213l0.311,0.214l0.311,0.215l0.309,0.215l0.31,0.217l0.308,0.217l0.308,0.218l0.307,0.22l0.307,0.22l0.305,0.221l0.305,0.222l0.305,0.222l0.304,0.224l0.303,0.224l0.302,0.226l0.302,0.226l0.3,0.227l0.301,0.229l0.299,0.229l0.299,0.229l0.298,0.231l0.297,0.232l0.297,0.232l0.296,0.233l0.295,0.235l0.295,0.235l0.293,0.236l0.294,0.236l0.292,0.238l0.291,0.239l0.291,0.239l0.291,0.24l0.289,0.241l0.289,0.242l0.288,0.243l0.287,0.244l0.286,0.244l0.286,0.245l0.285,0.247l0.284,0.247l0.284,0.247l0.282,0.249l0.282,0.25l0.282,0.25l0.28,0.251l0.28,0.252l0.279,0.253l0.278,0.253l0.277,0.255l0.277,0.255l0.276,0.256l0.275,0.257l0.274,0.258l0.274,0.258l0.273,0.26l0.272,0.26l0.271,0.261l0.271,0.262l0.269,0.262l0.269,0.264l0.268,0.264l0.268,0.265l0.266,0.265l0.266,0.267l0.265,0.267l0.264,0.268l0.263,0.269l0.263,0.27l0.262,0.27l0.261,0.272l0.26,0.272l0.259,0.273l0.259,0.273l0.257,0.275l0.257,0.275l0.256,0.276l0.256,0.276l0.254,0.278l0.254,0.278l0.253,0.279l0.252,0.28l0.251,0.28l0.25,0.281l0.25,0.282l0.248,0.283l0.248,0.283l0.247,0.285l0.246,0.285l0.246,0.285l0.244,0.287l0.244,0.287l0.242,0.288l0.242,0.289l0.241,0.289l0.241,0.29l0.239,0.291l0.238,0.292l0.238,0.292l0.237,0.293l0.236,0.294l0.235,0.294l0.234,0.296l0.233,0.296l0.233,0.296l0.232,0.298l0.23,0.298l0.23,0.299l0.229,0.299l0.228,0.3l0.227,0.301l0.227,0.302l0.225,0.302l0.225,0.303l0.223,0.304l0.223,0.304l0.222,0.305l0.221,0.306l0.22,0.306l0.219,0.308l0.219,0.307l0.217,0.309l0.216,0.309l0.216,0.31l0.215,0.311l0.213,0.311l0.213,0.312l0.212,0.312l0.211,0.314l0.21,0.314l0.209,0.314l0.209,0.315l0.207,0.316l0.206,0.317l0.206,0.317l0.205,0.318l0.203,0.318l0.203,0.32l0.202,0.319l0.2,0.321l0.2,0.321l0.199,0.322l0.198,0.322l0.197,0.323l0.196,0.324l0.195,0.324l0.195,0.325l0.193,0.326l0.192,0.326l0.191,0.327l0.191,0.327l0.189,0.328l0.189,0.329l0.187,0.329l0.187,0.33l0.185,0.331l0.185,0.331l0.183,0.332l0.183,0.332l0.182,0.333l0.18,0.334l0.18,0.334l0.179,0.335l0.178,0.336l0.176,0.336l0.176,0.336l0.175,0.337l0.174,0.338l0.172,0.339l0.172,0.339l0.171,0.339l0.17,0.34l0.169,0.341l0.167,0.342l0.167,0.342l0.166,0.342l0.165,0.343l0.164,0.344l0.162,0.344l0.162,0.345l0.161,0.345l0.159,0.346l0.159,0.347l0.158,0.347l0.156,0.347l0.156,0.348l0.155,0.349l0.153,0.349l0.153,0.35l0.151,0.351l0.151,0.351l0.149,0.351l0.148,0.352l0.148,0.353l0.146,0.353l0.145,0.354l0.144,0.354l0.144,0.354l0.142,0.356l0.141,0.356l0.14,0.356l0.139,0.357l0.137,0.357l0.137,0.358l0.136,0.358l0.135,0.359l0.133,0.36l0.133,0.36l0.131,0.36l0.131,0.361l0.129,0.362l0.128,0.362l0.127,0.362l0.127,0.364l0.125,0.363l0.124,0.364l0.122,0.365l0.122,0.365l0.121,0.365l0.119,0.366l0.119,0.367l0.117,0.367l0.116,0.367l0.116,0.368l0.114,0.369l0.113,0.369l0.112,0.369l0.11,0.37l0.11,0.37l0.109,0.371l0.107,0.372l0.106,0.371l0.106,0.373l0.104,0.372l0.103,0.374l0.101,0.373l0.101,0.374l0.1,0.375l0.098,0.375l0.098,0.375l0.096,0.376l0.095,0.377l0.094,0.377l0.092,0.377l0.092,0.378l0.091,0.378l0.089,0.378l0.088,0.38l0.087,0.379l0.086,0.38l0.085,0.38l0.084,0.381l0.082,0.381l0.081,0.382l0.08,0.382l0.079,0.383l0.078,0.382l0.077,0.384l0.075,0.384l0.075,0.384l0.073,0.384l0.072,0.385l0.071,0.386l0.069,0.386l0.069,0.386l0.067,0.386l0.066,0.387l0.065,0.388l0.064,0.388l0.062,0.388l0.062,0.389l0.06,0.389l0.059,0.389l0.057,0.39l0.057,0.39l0.055,0.391l0.054,0.391l0.053,0.391l0.052,0.392l0.051,0.392l0.049,0.392l0.048,0.393l0.047,0.393l0.046,0.394l0.044,0.394l0.043,0.394l0.042,0.395l0.041,0.395l0.04,0.395l0.038,0.396l0.037,0.396l0.036,0.396l0.035,0.397l0.033,0.397l0.032,0.398l0.031,0.398l0.03,0.398l0.028,0.399l0.028,0.398l0.026,0.4l0.024,0.399l0.024,0.4l0.022,0.4l0.021,0.401l0.02,0.401l0.018,0.401l0.017,0.402l0.016,0.402l0.015,0.402l0.013,0.402l0.013,0.403l0.01,0.403l0.01,0.404l0.008,0.403l0.007,0.405l0.006,0.404l0.005,0.405l0.003,0.405l0.002,0.405l0,0.405l0,0.406l-0.002,0.405l-0.003,0.405l-0.005,0.405l-0.006,0.404l-0.007,0.405l-0.008,0.403l-0.01,0.404l-0.01,0.403l-0.013,0.403l-0.013,0.402l-0.015,0.402l-0.016,0.402l-0.017,0.402l-0.018,0.401l-0.02,0.401l-0.021,0.401l-0.022,0.4l-0.024,0.4l-0.024,0.399l-0.026,0.399l-0.028,0.399l-0.028,0.399l-0.03,0.398l-0.031,0.398l-0.032,0.398l-0.033,0.397l-0.035,0.397l-0.036,0.396l-0.037,0.396l-0.038,0.396l-0.04,0.395l-0.041,0.395l-0.042,0.395l-0.043,0.394l-0.044,0.394l-0.046,0.394l-0.047,0.393l-0.048,0.393l-0.049,0.392l-0.051,0.392l-0.052,0.392l-0.053,0.391l-0.054,0.391l-0.055,0.391l-0.057,0.39l-0.057,0.39l-0.059,0.389l-0.06,0.389l-0.062,0.389l-0.062,0.388l-0.064,0.388l-0.065,0.388l-0.066,0.387l-0.067,0.386l-0.069,0.386l-0.069,0.386l-0.071,0.386l-0.072,0.385l-0.073,0.384l-0.075,0.384l-0.075,0.384l-0.077,0.383l-0.078,0.383l-0.079,0.383l-0.08,0.382l-0.081,0.382l-0.082,0.381l-0.084,0.381l-0.085,0.38l-0.086,0.38l-0.087,0.379l-0.088,0.38l-0.089,0.378l-0.091,0.378l-0.092,0.378l-0.092,0.377l-0.094,0.377l-0.095,0.377l-0.096,0.376l-0.098,0.375l-0.098,0.375l-0.1,0.375l-0.101,0.374l-0.101,0.373l-0.103,0.374l-0.104,0.372l-0.106,0.373l-0.106,0.371l-0.107,0.372l-0.109,0.371l-0.11,0.37l-0.11,0.37l-0.112,0.369l-0.113,0.369l-0.114,0.369l-0.116,0.368l-0.116,0.367l-0.117,0.367l-0.119,0.367l-0.119,0.366l-0.121,0.365l-0.122,0.365l-0.122,0.365l-0.124,0.364l-0.125,0.363l-0.127,0.364l-0.127,0.362l-0.128,0.362l-0.129,0.362l-0.131,0.361l-0.131,0.36l-0.133,0.36l-0.133,0.36l-0.135,0.359l-0.136,0.358l-0.137,0.358l-0.137,0.357l-0.139,0.357l-0.14,0.356l-0.141,0.356l-0.142,0.356l-0.144,0.354l-0.144,0.354l-0.145,0.354l-0.146,0.353l-0.148,0.353l-0.148,0.352l-0.149,0.351l-0.151,0.351l-0.151,0.351l-0.153,0.35l-0.153,0.349l-0.155,0.349l-0.156,0.348l-0.156,0.347l-0.158,0.347l-0.159,0.347l-0.159,0.346l-0.161,0.345l-0.162,0.345l-0.162,0.344l-0.164,0.344l-0.165,0.343l-0.166,0.342l-0.167,0.342l-0.167,0.342l-0.169,0.341l-0.17,0.34l-0.171,0.339l-0.172,0.339l-0.172,0.339l-0.174,0.338l-0.175,0.337l-0.176,0.336l-0.176,0.336l-0.178,0.336l-0.179,0.335l-0.18,0.334l-0.18,0.334l-0.182,0.333l-0.183,0.332l-0.183,0.332l-0.185,0.331l-0.185,0.331l-0.187,0.33l-0.187,0.329l-0.189,0.329l-0.189,0.328l-0.191,0.327l-0.191,0.327l-0.192,0.326l-0.193,0.326l-0.195,0.325l-0.195,0.324l-0.196,0.324l-0.197,0.323l-0.198,0.322l-0.199,0.322l-0.2,0.321l-0.2,0.321l-0.202,0.319l-0.203,0.32l-0.203,0.318l-0.205,0.318l-0.206,0.317l-0.206,0.317l-0.207,0.316l-0.209,0.315l-0.209,0.314l-0.21,0.314l-0.211,0.314l-0.212,0.312l-0.213,0.312l-0.213,0.311l-0.215,0.311l-0.216,0.31l-0.216,0.309l-0.217,0.309l-0.219,0.307l-0.219,0.308l-0.22,0.306l-0.221,0.306l-0.222,0.305l-0.223,0.304l-0.223,0.304l-0.225,0.303l-0.225,0.302l-0.227,0.302l-0.227,0.301l-0.228,0.3l-0.229,0.299l-0.23,0.299l-0.23,0.298l-0.232,0.298l-0.233,0.296l-0.233,0.296l-0.234,0.296l-0.235,0.294l-0.236,0.294l-0.237,0.293l-0.238,0.292l-0.238,0.292l-0.239,0.291l-0.241,0.29l-0.241,0.289l-0.242,0.289l-0.242,0.288l-0.244,0.287l-0.244,0.287l-0.246,0.285l-0.246,0.285l-0.247,0.285l-0.248,0.283l-0.248,0.283l-0.25,0.282l-0.25,0.281l-0.251,0.28l-0.252,0.28l-0.253,0.279l-0.254,0.278l-0.254,0.278l-0.256,0.276l-0.256,0.276l-0.257,0.275l-0.257,0.275l-0.259,0.273l-0.259,0.273l-0.26,0.272l-0.261,0.272l-0.262,0.27l-0.263,0.27l-0.263,0.269l-0.264,0.268l-0.265,0.267l-0.266,0.267l-0.266,0.265l-0.268,0.265l-0.268,0.264l-0.269,0.264l-0.269,0.262l-0.271,0.262l-0.271,0.261l-0.272,0.26l-0.273,0.26l-0.274,0.258l-0.274,0.258l-0.275,0.257l-0.276,0.256l-0.277,0.255l-0.277,0.255l-0.278,0.253l-0.279,0.253l-0.28,0.252l-0.28,0.251l-0.282,0.25l-0.282,0.25l-0.282,0.249l-0.284,0.247l-0.284,0.247l-0.285,0.247l-0.286,0.245l-0.286,0.244l-0.287,0.244l-0.288,0.243l-0.289,0.242l-0.289,0.241l-0.291,0.24l-0.291,0.239l-0.291,0.239l-0.292,0.238l-0.294,0.236l-0.293,0.236l-0.295,0.235l-0.295,0.235l-0.296,0.233l-0.297,0.232l-0.297,0.232l-0.298,0.231l-0.299,0.229l-0.299,0.229l-0.301,0.229l-0.3,0.227l-0.302,0.226l-0.302,0.226l-0.303,0.224l-0.304,0.224l-0.305,0.222l-0.305,0.222l-0.305,0.221l-0.307,0.22l-0.307,0.22l-0.308,0.218l-0.308,0.217l-0.31,0.217l-0.309,0.215l-0.311,0.215l-0.311,0.214l-0.312,0.213l-0.313,0.212l-0.313,0.211l-0.314,0.21l-0.314,0.209l-0.316,0.208l-0.316,0.207l-0.316,0.207l-0.317,0.205l-0.318,0.205l-0.319,0.203l-0.319,0.203l-0.32,0.202l-0.32,0.201l-0.321,0.2l-0.322,0.199l-0.323,0.198l-0.323,0.197l-0.323,0.196l-0.325,0.195l-0.325,0.194l-0.325,0.193l-0.326,0.193l-0.327,0.191l-0.328,0.19l-0.328,0.19l-0.328,0.188l-0.33,0.188l-0.33,0.186l-0.33,0.186l-0.332,0.184l-0.331,0.184l-0.333,0.182l-0.333,0.182l-0.333,0.181l-0.335,0.18l-0.334,0.178l-0.336,0.178l-0.336,0.177l-0.337,0.175l-0.337,0.175l-0.338,0.174l-0.338,0.173l-0.339,0.172l-0.34,0.17l-0.34,0.17l-0.341,0.169l-0.341,0.168l-0.342,0.167l-0.342,0.165l-0.343,0.165l-0.344,0.164l-0.344,0.163l-0.345,0.161l-0.346,0.161l-0.345,0.16l-0.347,0.158l-0.347,0.158l-0.348,0.157l-0.348,0.155l-0.349,0.155l-0.349,0.154l-0.35,0.152l-0.35,0.152l-0.351,0.15l-0.352,0.149l-0.352,0.149l-0.352,0.147l-0.353,0.146l-0.354,0.146l-0.354,0.144l-0.355,0.143l-0.355,0.142l-0.356,0.141l-0.356,0.14l-0.357,0.139l-0.357,0.138l-0.358,0.137l-0.359,0.135l-0.359,0.135l-0.359,0.134l-0.36,0.132l-0.361,0.132l-0.361,0.13l-0.361,0.129l-0.362,0.129l-0.363,0.127l-0.363,0.126l-0.363,0.125l-0.364,0.124l-0.365,0.123l-0.365,0.121l-0.366,0.121l-0.366,0.12l-0.366,0.118l-0.367,0.118l-0.368,0.116l-0.368,0.115l-0.368,0.114l-0.369,0.113l-0.369,0.112l-0.37,0.111l-0.371,0.109l-0.371,0.109l-0.371,0.107l-0.372,0.107l-0.372,0.105l-0.373,0.104l-0.373,0.103l-0.374,0.102l-0.374,0.1l-0.374,0.1l-0.375,0.099l-0.376,0.097l-0.376,0.096l-0.376,0.095l-0.377,0.094l-0.377,0.093l-0.378,0.091l-0.378,0.091l-0.379,0.089l-0.379,0.089l-0.379,0.087l-0.38,0.086l-0.381,0.084l-0.38,0.084l-0.382,0.082l-0.381,0.082l-0.382,0.08l-0.383,0.079l-0.383,0.078l-0.383,0.076l-0.384,0.076l-0.384,0.074l-0.385,0.073l-0.385,0.072l-0.385,0.071l-0.386,0.07l-0.386,0.068l-0.387,0.067l-0.387,0.066l-0.387,0.065l-0.388,0.064l-0.388,0.063l-0.389,0.061l-0.389,0.06l-0.389,0.059l-0.39,0.058l-0.39,0.056l-0.391,0.056l-0.391,0.054l-0.391,0.053l-0.392,0.051l-0.392,0.051l-0.392,0.049l-0.393,0.048l-0.394,0.047l-0.393,0.046l-0.394,0.044l-0.394,0.044l-0.395,0.042l-0.395,0.041l-0.396,0.039l-0.395,0.038l-0.396,0.038l-0.397,0.035l-0.397,0.035l-0.397,0.034l-0.397,0.032l-0.398,0.031l-0.398,0.029l-0.399,0.029l-0.399,0.027l-0.399,0.026l-0.4,0.025l-0.4,0.023l-0.4,0.022l-0.4,0.021l-0.401,0.02l-0.401,0.019l-0.402,0.017l-0.402,0.016l-0.402,0.014l-0.403,0.014l-0.402,0.012l-0.404,0.011l-0.403,0.009l-0.404,0.009l-0.404,0.007l-0.404,0.006l-0.405,0.004l-0.405,0.003l-0.405,0.002l-0.406,0.001ZM524.056,243.37l0.381,-0.001l0.38,-0.001l0.381,-0.003l0.379,-0.005l0.38,-0.005l0.379,-0.007l0.379,-0.007l0.379,-0.009l0.378,-0.011l0.378,-0.011l0.378,-0.013l0.377,-0.013l0.377,-0.015l0.377,-0.016l0.376,-0.018l0.376,-0.018l0.376,-0.02l0.376,-0.021l0.375,-0.022l0.374,-0.023l0.375,-0.024l0.374,-0.026l0.374,-0.027l0.374,-0.027l0.373,-0.03l0.373,-0.03l0.372,-0.031l0.372,-0.033l0.372,-0.033l0.371,-0.035l0.371,-0.036l0.371,-0.037l0.371,-0.038l0.37,-0.04l0.369,-0.04l0.37,-0.042l0.369,-0.043l0.368,-0.044l0.369,-0.045l0.368,-0.046l0.367,-0.047l0.367,-0.049l0.367,-0.05l0.367,-0.05l0.366,-0.052l0.366,-0.053l0.365,-0.054l0.365,-0.056l0.365,-0.056l0.364,-0.058l0.364,-0.058l0.363,-0.06l0.364,-0.061l0.362,-0.062l0.363,-0.063l0.362,-0.064l0.361,-0.065l0.361,-0.066l0.361,-0.068l0.361,-0.068l0.36,-0.07l0.359,-0.071l0.36,-0.072l0.358,-0.073l0.359,-0.074l0.358,-0.075l0.358,-0.076l0.357,-0.077l0.357,-0.078l0.356,-0.08l0.356,-0.08l0.356,-0.082l0.355,-0.083l0.355,-0.083l0.354,-0.085l0.354,-0.086l0.354,-0.087l0.353,-0.088l0.353,-0.089l0.352,-0.09l0.352,-0.091l0.351,-0.093l0.351,-0.093l0.351,-0.094l0.35,-0.096l0.349,-0.096l0.35,-0.098l0.349,-0.098l0.348,-0.1l0.348,-0.101l0.347,-0.101l0.347,-0.103l0.347,-0.104l0.346,-0.105l0.346,-0.106l0.345,-0.107l0.345,-0.107l0.344,-0.109l0.344,-0.11l0.344,-0.112l0.343,-0.112l0.342,-0.113l0.342,-0.114l0.342,-0.115l0.341,-0.116l0.341,-0.117l0.34,-0.118l0.34,-0.119l0.339,-0.121l0.339,-0.121l0.338,-0.122l0.338,-0.123l0.337,-0.124l0.337,-0.126l0.336,-0.126l0.336,-0.127l0.335,-0.128l0.335,-0.129l0.335,-0.131l0.334,-0.131l0.333,-0.132l0.333,-0.133l0.332,-0.134l0.333,-0.135l0.331,-0.136l0.331,-0.137l0.33,-0.139l0.33,-0.139l0.329,-0.14l0.329,-0.141l0.329,-0.142l0.328,-0.143l0.327,-0.144l0.327,-0.144l0.326,-0.146l0.326,-0.147l0.325,-0.148l0.325,-0.149l0.324,-0.149l0.324,-0.151l0.323,-0.151l0.323,-0.153l0.322,-0.153l0.321,-0.155l0.321,-0.155l0.321,-0.157l0.32,-0.157l0.319,-0.158l0.319,-0.159l0.318,-0.16l0.318,-0.161l0.317,-0.162l0.317,-0.163l0.316,-0.164l0.316,-0.165l0.315,-0.165l0.314,-0.167l0.314,-0.168l0.314,-0.168l0.312,-0.169l0.312,-0.171l0.312,-0.171l0.311,-0.172l0.311,-0.173l0.31,-0.174l0.309,-0.175l0.309,-0.176l0.308,-0.176l0.307,-0.178l0.307,-0.178l0.307,-0.18l0.306,-0.18l0.305,-0.181l0.305,-0.182l0.304,-0.183l0.303,-0.184l0.303,-0.185l0.302,-0.186l0.302,-0.186l0.301,-0.188l0.301,-0.188l0.3,-0.189l0.299,-0.19l0.298,-0.191l0.299,-0.192l0.297,-0.192l0.297,-0.194l0.296,-0.194l0.296,-0.196l0.295,-0.196l0.294,-0.197l0.294,-0.198l0.293,-0.198l0.292,-0.2l0.292,-0.201l0.291,-0.201l0.291,-0.202l0.29,-0.203l0.289,-0.204l0.289,-0.204l0.288,-0.206l0.287,-0.206l0.287,-0.208l0.286,-0.208l0.286,-0.209l0.285,-0.209l0.284,-0.211l0.283,-0.211l0.283,-0.213l0.282,-0.213l0.282,-0.214l0.281,-0.215l0.28,-0.215l0.28,-0.216l0.279,-0.218l0.278,-0.218l0.277,-0.219l0.277,-0.219l0.276,-0.22l0.276,-0.222l0.275,-0.222l0.274,-0.223l0.274,-0.224l0.272,-0.224l0.273,-0.225l0.271,-0.226l0.271,-0.227l0.27,-0.228l0.269,-0.229l0.269,-0.229l0.268,-0.23l0.267,-0.231l0.267,-0.231l0.266,-0.233l0.265,-0.233l0.264,-0.234l0.264,-0.235l0.263,-0.236l0.262,-0.236l0.262,-0.237l0.261,-0.238l0.26,-0.239l0.26,-0.239l0.259,-0.241l0.258,-0.24l0.257,-0.242l0.257,-0.243l0.256,-0.243l0.255,-0.244l0.254,-0.245l0.254,-0.245l0.253,-0.246l0.252,-0.248l0.252,-0.247l0.25,-0.249l0.251,-0.249l0.249,-0.25l0.248,-0.251l0.248,-0.252l0.247,-0.252l0.246,-0.252l0.246,-0.254l0.245,-0.255l0.244,-0.255l0.243,-0.256l0.242,-0.256l0.242,-0.258l0.241,-0.258l0.24,-0.259l0.24,-0.259l0.239,-0.261l0.238,-0.261l0.236,-0.261l0.237,-0.262l0.236,-0.264l0.234,-0.263l0.234,-0.265l0.234,-0.265l0.232,-0.266l0.231,-0.266l0.232,-0.268l0.23,-0.268l0.229,-0.269l0.228,-0.269l0.228,-0.27l0.227,-0.271l0.226,-0.271l0.225,-0.272l0.225,-0.273l0.224,-0.274l0.223,-0.274l0.222,-0.275l0.221,-0.275l0.221,-0.277l0.219,-0.277l0.219,-0.277l0.218,-0.278l0.217,-0.279l0.217,-0.28l0.215,-0.28l0.215,-0.281l0.214,-0.281l0.213,-0.283l0.212,-0.282l0.211,-0.284l0.211,-0.284l0.21,-0.285l0.209,-0.285l0.208,-0.287l0.207,-0.286l0.207,-0.288l0.205,-0.287l0.205,-0.289l0.204,-0.29l0.203,-0.29l0.202,-0.29l0.201,-0.291l0.201,-0.292l0.199,-0.293l0.199,-0.293l0.198,-0.293l0.197,-0.295l0.196,-0.295l0.195,-0.296l0.195,-0.296l0.193,-0.297l0.193,-0.297l0.192,-0.298l0.191,-0.299l0.19,-0.299l0.189,-0.3l0.188,-0.301l0.188,-0.301l0.186,-0.301l0.186,-0.303l0.184,-0.302l0.184,-0.304l0.183,-0.304l0.182,-0.305l0.181,-0.305l0.181,-0.306l0.179,-0.306l0.179,-0.307l0.177,-0.308l0.177,-0.308l0.176,-0.309l0.175,-0.309l0.173,-0.31l0.173,-0.31l0.173,-0.312l0.171,-0.311l0.17,-0.312l0.169,-0.313l0.169,-0.314l0.168,-0.314l0.166,-0.313l0.166,-0.315l0.165,-0.317l0.163,-0.316l0.163,-0.316l0.162,-0.317l0.161,-0.318l0.16,-0.318l0.159,-0.319l0.159,-0.319l0.157,-0.321l0.156,-0.32l0.156,-0.321l0.154,-0.322l0.154,-0.322l0.152,-0.322l0.152,-0.324l0.151,-0.323l0.149,-0.324l0.149,-0.325l0.148,-0.325l0.146,-0.326l0.146,-0.327l0.145,-0.326l0.144,-0.328l0.143,-0.328l0.142,-0.328l0.141,-0.329l0.14,-0.329l0.139,-0.33l0.138,-0.33l0.137,-0.332l0.136,-0.331l0.135,-0.332l0.135,-0.333l0.133,-0.332l0.132,-0.334l0.131,-0.334l0.13,-0.334l0.129,-0.335l0.129,-0.335l0.127,-0.337l0.126,-0.336l0.125,-0.337l0.125,-0.337l0.123,-0.337l0.122,-0.339l0.121,-0.339l0.12,-0.339l0.12,-0.34l0.118,-0.34l0.117,-0.34l0.116,-0.342l0.115,-0.342l0.114,-0.342l0.113,-0.342l0.112,-0.343l0.111,-0.343l0.11,-0.344l0.109,-0.344l0.108,-0.346l0.107,-0.345l0.106,-0.345l0.105,-0.346l0.103,-0.347l0.103,-0.347l0.102,-0.348l0.101,-0.348l0.099,-0.348l0.099,-0.349l0.097,-0.349l0.097,-0.35l0.095,-0.35l0.095,-0.351l0.093,-0.351l0.092,-0.351l0.091,-0.352l0.09,-0.352l0.089,-0.353l0.089,-0.353l0.087,-0.354l0.085,-0.354l0.085,-0.354l0.084,-0.354l0.083,-0.356l0.081,-0.356l0.081,-0.355l0.079,-0.356l0.079,-0.358l0.077,-0.357l0.076,-0.358l0.075,-0.358l0.074,-0.358l0.073,-0.359l0.072,-0.359l0.071,-0.36l0.069,-0.36l0.069,-0.36l0.067,-0.361l0.067,-0.362l0.065,-0.361l0.064,-0.362l0.063,-0.363l0.062,-0.362l0.061,-0.363l0.06,-0.364l0.058,-0.364l0.058,-0.364l0.056,-0.365l0.055,-0.365l0.054,-0.365l0.053,-0.366l0.052,-0.366l0.051,-0.366l0.05,-0.367l0.048,-0.368l0.048,-0.367l0.046,-0.368l0.045,-0.368l0.044,-0.369l0.043,-0.369l0.041,-0.369l0.041,-0.37l0.039,-0.37l0.039,-0.37l0.037,-0.371l0.036,-0.372l0.034,-0.371l0.034,-0.372l0.033,-0.371l0.031,-0.373l0.03,-0.373l0.029,-0.373l0.028,-0.374l0.027,-0.374l0.025,-0.373l0.025,-0.375l0.023,-0.375l0.022,-0.375l0.021,-0.376l0.019,-0.376l0.019,-0.375l0.017,-0.377l0.016,-0.377l0.015,-0.376l0.014,-0.378l0.013,-0.378l0.011,-0.378l0.01,-0.378l0.009,-0.378l0.008,-0.38l0.007,-0.379l0.005,-0.379l0.004,-0.38l0.003,-0.38l0.002,-0.381l0.001,-0.381l-0.001,-0.38l-0.002,-0.381l-0.003,-0.38l-0.004,-0.38l-0.005,-0.379l-0.007,-0.379l-0.008,-0.38l-0.009,-0.378l-0.01,-0.378l-0.011,-0.378l-0.013,-0.378l-0.014,-0.378l-0.015,-0.376l-0.016,-0.377l-0.017,-0.377l-0.019,-0.375l-0.019,-0.376l-0.021,-0.376l-0.022,-0.375l-0.023,-0.375l-0.025,-0.375l-0.025,-0.373l-0.027,-0.374l-0.028,-0.374l-0.029,-0.373l-0.03,-0.373l-0.031,-0.373l-0.033,-0.371l-0.034,-0.372l-0.034,-0.371l-0.036,-0.372l-0.037,-0.371l-0.039,-0.37l-0.039,-0.37l-0.041,-0.37l-0.041,-0.369l-0.043,-0.369l-0.044,-0.369l-0.045,-0.368l-0.046,-0.368l-0.048,-0.367l-0.048,-0.368l-0.05,-0.367l-0.051,-0.366l-0.052,-0.366l-0.053,-0.366l-0.054,-0.365l-0.055,-0.365l-0.056,-0.365l-0.058,-0.364l-0.058,-0.364l-0.06,-0.364l-0.061,-0.363l-0.062,-0.362l-0.063,-0.363l-0.064,-0.362l-0.065,-0.361l-0.067,-0.362l-0.067,-0.361l-0.069,-0.36l-0.069,-0.36l-0.071,-0.36l-0.072,-0.359l-0.073,-0.359l-0.074,-0.358l-0.075,-0.358l-0.076,-0.358l-0.077,-0.357l-0.079,-0.358l-0.079,-0.356l-0.081,-0.355l-0.081,-0.356l-0.083,-0.356l-0.084,-0.354l-0.085,-0.354l-0.085,-0.354l-0.087,-0.354l-0.089,-0.353l-0.089,-0.353l-0.09,-0.352l-0.091,-0.352l-0.092,-0.351l-0.093,-0.351l-0.095,-0.351l-0.095,-0.35l-0.097,-0.35l-0.097,-0.349l-0.099,-0.349l-0.099,-0.348l-0.101,-0.348l-0.102,-0.348l-0.103,-0.347l-0.103,-0.347l-0.105,-0.346l-0.106,-0.345l-0.107,-0.345l-0.108,-0.346l-0.109,-0.344l-0.11,-0.344l-0.111,-0.343l-0.112,-0.343l-0.113,-0.342l-0.114,-0.342l-0.115,-0.342l-0.116,-0.342l-0.117,-0.34l-0.118,-0.34l-0.12,-0.34l-0.12,-0.339l-0.121,-0.339l-0.122,-0.339l-0.123,-0.337l-0.125,-0.337l-0.125,-0.337l-0.126,-0.336l-0.127,-0.337l-0.129,-0.335l-0.129,-0.335l-0.13,-0.334l-0.131,-0.334l-0.132,-0.334l-0.133,-0.332l-0.135,-0.333l-0.135,-0.332l-0.136,-0.331l-0.137,-0.332l-0.138,-0.33l-0.139,-0.329l-0.14,-0.33l-0.141,-0.329l-0.142,-0.328l-0.143,-0.328l-0.144,-0.328l-0.145,-0.326l-0.146,-0.327l-0.146,-0.326l-0.148,-0.325l-0.149,-0.325l-0.149,-0.324l-0.151,-0.323l-0.152,-0.324l-0.152,-0.322l-0.154,-0.322l-0.154,-0.322l-0.156,-0.321l-0.156,-0.32l-0.157,-0.321l-0.159,-0.319l-0.159,-0.319l-0.16,-0.318l-0.161,-0.318l-0.162,-0.317l-0.162,-0.316l-0.164,-0.316l-0.165,-0.317l-0.166,-0.315l-0.166,-0.313l-0.168,-0.314l-0.169,-0.314l-0.169,-0.313l-0.17,-0.312l-0.171,-0.311l-0.173,-0.312l-0.173,-0.31l-0.173,-0.31l-0.175,-0.309l-0.176,-0.309l-0.177,-0.308l-0.177,-0.308l-0.179,-0.307l-0.179,-0.306l-0.181,-0.306l-0.181,-0.305l-0.182,-0.305l-0.183,-0.304l-0.184,-0.304l-0.184,-0.303l-0.186,-0.302l-0.186,-0.301l-0.188,-0.301l-0.188,-0.301l-0.189,-0.3l-0.19,-0.299l-0.191,-0.299l-0.192,-0.298l-0.193,-0.297l-0.193,-0.297l-0.195,-0.296l-0.195,-0.296l-0.196,-0.295l-0.197,-0.295l-0.198,-0.293l-0.199,-0.293l-0.199,-0.293l-0.201,-0.292l-0.201,-0.291l-0.202,-0.29l-0.203,-0.29l-0.204,-0.29l-0.205,-0.289l-0.205,-0.287l-0.207,-0.288l-0.207,-0.286l-0.208,-0.287l-0.209,-0.285l-0.21,-0.285l-0.211,-0.284l-0.211,-0.284l-0.212,-0.282l-0.213,-0.283l-0.214,-0.281l-0.215,-0.281l-0.215,-0.28l-0.217,-0.28l-0.217,-0.279l-0.218,-0.278l-0.219,-0.277l-0.219,-0.277l-0.221,-0.277l-0.221,-0.275l-0.222,-0.275l-0.223,-0.274l-0.224,-0.274l-0.225,-0.273l-0.225,-0.272l-0.226,-0.271l-0.227,-0.271l-0.228,-0.27l-0.228,-0.269l-0.229,-0.269l-0.23,-0.268l-0.232,-0.268l-0.231,-0.266l-0.232,-0.266l-0.234,-0.265l-0.234,-0.265l-0.234,-0.263l-0.236,-0.264l-0.237,-0.262l-0.236,-0.261l-0.238,-0.261l-0.239,-0.261l-0.24,-0.259l-0.24,-0.259l-0.241,-0.258l-0.242,-0.258l-0.242,-0.256l-0.243,-0.256l-0.244,-0.255l-0.245,-0.255l-0.246,-0.253l-0.246,-0.253l-0.247,-0.253l-0.248,-0.251l-0.248,-0.251l-0.25,-0.25l-0.25,-0.249l-0.25,-0.249l-0.252,-0.247l-0.252,-0.248l-0.253,-0.246l-0.254,-0.245l-0.254,-0.245l-0.255,-0.244l-0.256,-0.243l-0.257,-0.243l-0.257,-0.242l-0.258,-0.24l-0.259,-0.241l-0.26,-0.239l-0.26,-0.239l-0.261,-0.238l-0.261,-0.237l-0.263,-0.236l-0.263,-0.236l-0.264,-0.235l-0.264,-0.234l-0.265,-0.233l-0.266,-0.233l-0.267,-0.231l-0.267,-0.231l-0.268,-0.23l-0.269,-0.229l-0.269,-0.229l-0.271,-0.228l-0.27,-0.227l-0.271,-0.225l-0.273,-0.226l-0.272,-0.224l-0.274,-0.224l-0.274,-0.223l-0.275,-0.222l-0.276,-0.222l-0.276,-0.22l-0.277,-0.219l-0.277,-0.219l-0.278,-0.218l-0.279,-0.218l-0.28,-0.216l-0.28,-0.215l-0.281,-0.215l-0.282,-0.214l-0.282,-0.213l-0.283,-0.213l-0.283,-0.211l-0.285,-0.211l-0.284,-0.209l-0.286,-0.209l-0.286,-0.208l-0.287,-0.208l-0.287,-0.206l-0.288,-0.206l-0.289,-0.204l-0.289,-0.204l-0.29,-0.203l-0.291,-0.202l-0.291,-0.201l-0.292,-0.201l-0.292,-0.2l-0.293,-0.198l-0.294,-0.198l-0.294,-0.197l-0.295,-0.196l-0.296,-0.196l-0.296,-0.194l-0.297,-0.194l-0.297,-0.192l-0.299,-0.192l-0.298,-0.191l-0.299,-0.19l-0.3,-0.189l-0.301,-0.189l-0.301,-0.187l-0.302,-0.186l-0.302,-0.186l-0.303,-0.185l-0.303,-0.184l-0.304,-0.183l-0.305,-0.182l-0.305,-0.181l-0.306,-0.18l-0.307,-0.18l-0.307,-0.178l-0.307,-0.178l-0.309,-0.176l-0.308,-0.176l-0.309,-0.175l-0.31,-0.174l-0.311,-0.173l-0.311,-0.172l-0.312,-0.171l-0.312,-0.171l-0.312,-0.169l-0.314,-0.168l-0.314,-0.168l-0.314,-0.167l-0.315,-0.165l-0.316,-0.165l-0.316,-0.164l-0.317,-0.163l-0.317,-0.162l-0.318,-0.161l-0.318,-0.16l-0.319,-0.159l-0.319,-0.158l-0.32,-0.157l-0.321,-0.157l-0.321,-0.155l-0.321,-0.155l-0.322,-0.153l-0.323,-0.153l-0.323,-0.151l-0.324,-0.151l-0.324,-0.15l-0.325,-0.148l-0.325,-0.148l-0.326,-0.147l-0.326,-0.146l-0.327,-0.144l-0.327,-0.144l-0.328,-0.143l-0.329,-0.142l-0.329,-0.141l-0.329,-0.14l-0.33,-0.139l-0.33,-0.138l-0.331,-0.138l-0.331,-0.136l-0.332,-0.135l-0.333,-0.134l-0.333,-0.133l-0.333,-0.132l-0.334,-0.131l-0.335,-0.131l-0.335,-0.129l-0.335,-0.128l-0.336,-0.127l-0.336,-0.127l-0.337,-0.125l-0.337,-0.124l-0.338,-0.123l-0.338,-0.122l-0.339,-0.121l-0.339,-0.121l-0.34,-0.119l-0.34,-0.118l-0.341,-0.117l-0.341,-0.116l-0.342,-0.115l-0.342,-0.114l-0.342,-0.113l-0.343,-0.113l-0.344,-0.111l-0.344,-0.11l-0.344,-0.108l-0.345,-0.108l-0.345,-0.107l-0.346,-0.106l-0.346,-0.105l-0.346,-0.104l-0.348,-0.103l-0.347,-0.101l-0.348,-0.101l-0.348,-0.1l-0.349,-0.098l-0.35,-0.098l-0.349,-0.096l-0.35,-0.096l-0.351,-0.094l-0.351,-0.093l-0.351,-0.093l-0.352,-0.091l-0.352,-0.09l-0.353,-0.089l-0.353,-0.088l-0.354,-0.087l-0.354,-0.086l-0.354,-0.085l-0.355,-0.083l-0.355,-0.083l-0.356,-0.082l-0.356,-0.08l-0.356,-0.08l-0.357,-0.078l-0.357,-0.077l-0.358,-0.076l-0.358,-0.075l-0.359,-0.074l-0.358,-0.073l-0.359,-0.072l-0.36,-0.071l-0.36,-0.07l-0.361,-0.068l-0.36,-0.068l-0.362,-0.066l-0.361,-0.065l-0.362,-0.064l-0.363,-0.063l-0.362,-0.062l-0.364,-0.061l-0.363,-0.06l-0.364,-0.059l-0.364,-0.057l-0.365,-0.056l-0.365,-0.056l-0.365,-0.054l-0.366,-0.053l-0.366,-0.052l-0.367,-0.05l-0.367,-0.05l-0.367,-0.049l-0.367,-0.047l-0.368,-0.046l-0.369,-0.045l-0.368,-0.044l-0.369,-0.043l-0.37,-0.042l-0.369,-0.04l-0.37,-0.04l-0.371,-0.038l-0.371,-0.037l-0.371,-0.036l-0.371,-0.035l-0.372,-0.033l-0.372,-0.033l-0.373,-0.031l-0.372,-0.031l-0.373,-0.029l-0.374,-0.027l-0.374,-0.027l-0.374,-0.026l-0.374,-0.024l-0.375,-0.023l-0.375,-0.022l-0.376,-0.021l-0.376,-0.02l-0.376,-0.018l-0.376,-0.018l-0.377,-0.016l-0.377,-0.015l-0.377,-0.013l-0.378,-0.013l-0.378,-0.011l-0.378,-0.011l-0.379,-0.009l-0.379,-0.007l-0.379,-0.007l-0.38,-0.005l-0.38,-0.005l-0.38,-0.003l-0.38,-0.001l-0.381,-0.001l-0.381,0.001l-0.38,0.001l-0.38,0.003l-0.38,0.005l-0.38,0.005l-0.379,0.007l-0.379,0.007l-0.378,0.009l-0.379,0.011l-0.378,0.011l-0.377,0.013l-0.378,0.013l-0.377,0.015l-0.377,0.016l-0.376,0.018l-0.376,0.018l-0.376,0.02l-0.375,0.021l-0.375,0.022l-0.375,0.023l-0.375,0.024l-0.374,0.026l-0.374,0.027l-0.373,0.027l-0.373,0.029l-0.373,0.031l-0.373,0.031l-0.372,0.033l-0.372,0.033l-0.371,0.035l-0.371,0.036l-0.371,0.037l-0.37,0.038l-0.37,0.04l-0.37,0.04l-0.369,0.042l-0.37,0.043l-0.368,0.044l-0.368,0.045l-0.368,0.046l-0.368,0.047l-0.367,0.049l-0.367,0.05l-0.367,0.05l-0.366,0.052l-0.365,0.053l-0.366,0.054l-0.365,0.056l-0.364,0.056l-0.365,0.058l-0.364,0.058l-0.363,0.06l-0.363,0.061l-0.363,0.062l-0.362,0.063l-0.362,0.064l-0.362,0.065l-0.361,0.066l-0.361,0.068l-0.36,0.068l-0.361,0.07l-0.359,0.071l-0.359,0.072l-0.359,0.073l-0.359,0.074l-0.358,0.075l-0.357,0.076l-0.358,0.077l-0.357,0.078l-0.356,0.08l-0.356,0.08l-0.356,0.082l-0.355,0.083l-0.355,0.083l-0.354,0.085l-0.354,0.086l-0.353,0.087l-0.354,0.088l-0.352,0.089l-0.353,0.09l-0.351,0.091l-0.352,0.093l-0.351,0.093l-0.35,0.094l-0.351,0.096l-0.349,0.096l-0.349,0.098l-0.349,0.098l-0.349,0.1l-0.348,0.101l-0.347,0.101l-0.347,0.103l-0.347,0.104l-0.346,0.105l-0.346,0.106l-0.345,0.107l-0.345,0.108l-0.344,0.108l-0.344,0.11l-0.343,0.111l-0.343,0.113l-0.343,0.113l-0.342,0.114l-0.342,0.115l-0.341,0.116l-0.34,0.117l-0.341,0.118l-0.339,0.119l-0.34,0.121l-0.338,0.121l-0.339,0.122l-0.337,0.123l-0.338,0.124l-0.337,0.126l-0.336,0.126l-0.336,0.127l-0.335,0.128l-0.335,0.129l-0.335,0.131l-0.333,0.131l-0.334,0.132l-0.333,0.133l-0.332,0.134l-0.332,0.135l-0.332,0.136l-0.331,0.138l-0.33,0.138l-0.33,0.139l-0.329,0.14l-0.329,0.141l-0.329,0.142l-0.327,0.143l-0.328,0.143l-0.327,0.145l-0.326,0.146l-0.326,0.147l-0.325,0.148l-0.325,0.148l-0.324,0.15l-0.324,0.151l-0.323,0.151l-0.322,0.153l-0.323,0.153l-0.321,0.155l-0.321,0.155l-0.321,0.157l-0.32,0.157l-0.319,0.158l-0.319,0.159l-0.318,0.16l-0.318,0.161l-0.317,0.162l-0.317,0.163l-0.316,0.164l-0.316,0.165l-0.315,0.165l-0.314,0.167l-0.314,0.168l-0.313,0.168l-0.313,0.169l-0.312,0.171l-0.312,0.171l-0.311,0.172l-0.31,0.173l-0.31,0.174l-0.31,0.175l-0.308,0.176l-0.309,0.176l-0.307,0.178l-0.307,0.178l-0.307,0.18l-0.305,0.18l-0.306,0.181l-0.304,0.182l-0.304,0.183l-0.304,0.184l-0.303,0.185l-0.302,0.186l-0.302,0.186l-0.301,0.187l-0.3,0.189l-0.3,0.189l-0.3,0.19l-0.298,0.191l-0.298,0.192l-0.298,0.192l-0.297,0.194l-0.296,0.194l-0.295,0.196l-0.295,0.196l-0.295,0.197l-0.293,0.198l-0.294,0.198l-0.292,0.2l-0.292,0.2l-0.291,0.202l-0.291,0.202l-0.29,0.203l-0.289,0.204l-0.289,0.204l-0.288,0.206l-0.287,0.206l-0.287,0.208l-0.286,0.208l-0.285,0.209l-0.285,0.209l-0.284,0.211l-0.284,0.211l-0.283,0.213l-0.282,0.213l-0.282,0.214l-0.28,0.214l-0.281,0.216l-0.279,0.216l-0.279,0.218l-0.278,0.218l-0.278,0.218l-0.277,0.22l-0.276,0.221l-0.276,0.221l-0.275,0.222l-0.274,0.223l-0.273,0.224l-0.273,0.224l-0.272,0.225l-0.272,0.227l-0.27,0.226l-0.271,0.228l-0.269,0.229l-0.268,0.229l-0.269,0.23l-0.267,0.231l-0.267,0.232l-0.265,0.232l-0.265,0.233l-0.265,0.234l-0.264,0.235l-0.263,0.236l-0.262,0.236l-0.262,0.237l-0.261,0.238l-0.26,0.239l-0.26,0.239l-0.258,0.24l-0.258,0.241l-0.258,0.242l-0.257,0.243l-0.256,0.243l-0.254,0.244l-0.255,0.245l-0.254,0.245l-0.253,0.247l-0.252,0.246l-0.252,0.248l-0.25,0.249l-0.25,0.249l-0.249,0.25l-0.249,0.251l-0.248,0.251l-0.247,0.253l-0.246,0.253l-0.246,0.253l-0.244,0.255l-0.244,0.255l-0.244,0.256l-0.242,0.256l-0.242,0.258l-0.241,0.258l-0.24,0.259l-0.24,0.259l-0.238,0.26l-0.238,0.261l-0.237,0.262l-0.237,0.262l-0.235,0.263l-0.235,0.264l-0.234,0.265l-0.233,0.265l-0.233,0.266l-0.231,0.266l-0.231,0.268l-0.23,0.268l-0.23,0.269l-0.228,0.269l-0.228,0.27l-0.227,0.271l-0.226,0.271l-0.225,0.272l-0.225,0.273l-0.224,0.274l-0.222,0.274l-0.222,0.275l-0.222,0.275l-0.22,0.276l-0.22,0.277l-0.219,0.278l-0.218,0.278l-0.217,0.279l-0.216,0.28l-0.216,0.28l-0.215,0.281l-0.214,0.281l-0.213,0.283l-0.212,0.283l-0.211,0.283l-0.211,0.284l-0.21,0.285l-0.209,0.285l-0.208,0.286l-0.207,0.287l-0.206,0.288l-0.206,0.288l-0.205,0.288l-0.203,0.29l-0.204,0.29l-0.202,0.29l-0.201,0.291l-0.2,0.292l-0.2,0.293l-0.199,0.293l-0.198,0.294l-0.196,0.294l-0.197,0.295l-0.195,0.296l-0.195,0.296l-0.193,0.297l-0.193,0.297l-0.191,0.298l-0.191,0.299l-0.19,0.299l-0.19,0.3l-0.188,0.3l-0.187,0.302l-0.187,0.301l-0.185,0.302l-0.185,0.303l-0.184,0.304l-0.183,0.304l-0.182,0.305l-0.181,0.305l-0.18,0.306l-0.18,0.306l-0.178,0.307l-0.178,0.308l-0.177,0.308l-0.175,0.309l-0.175,0.309l-0.174,0.31l-0.173,0.311l-0.172,0.31l-0.172,0.312l-0.17,0.312l-0.169,0.313l-0.169,0.313l-0.167,0.314l-0.167,0.315l-0.166,0.315l-0.164,0.315l-0.164,0.317l-0.163,0.316l-0.162,0.317l-0.161,0.318l-0.16,0.318l-0.159,0.319l-0.158,0.32l-0.158,0.319l-0.156,0.321l-0.156,0.321l-0.154,0.322l-0.153,0.322l-0.153,0.323l-0.152,0.323l-0.15,0.323l-0.15,0.325l-0.149,0.324l-0.147,0.326l-0.147,0.325l-0.146,0.327l-0.145,0.326l-0.144,0.328l-0.143,0.328l-0.142,0.328l-0.141,0.329l-0.14,0.329l-0.139,0.33l-0.138,0.331l-0.137,0.331l-0.136,0.331l-0.135,0.332l-0.134,0.332l-0.134,0.334l-0.132,0.333l-0.131,0.334l-0.13,0.334l-0.129,0.335l-0.128,0.335l-0.128,0.336l-0.126,0.337l-0.125,0.336l-0.124,0.338l-0.123,0.338l-0.123,0.338l-0.121,0.339l-0.12,0.339l-0.119,0.34l-0.118,0.34l-0.117,0.341l-0.117,0.341l-0.115,0.341l-0.114,0.343l-0.113,0.342l-0.112,0.343l-0.111,0.343l-0.11,0.344l-0.109,0.345l-0.108,0.344l-0.107,0.346l-0.106,0.345l-0.104,0.347l-0.104,0.346l-0.103,0.347l-0.102,0.348l-0.1,0.348l-0.1,0.348l-0.098,0.349l-0.098,0.349l-0.096,0.35l-0.096,0.35l-0.094,0.351l-0.094,0.351l-0.092,0.351l-0.091,0.352l-0.09,0.352l-0.089,0.353l-0.088,0.353l-0.087,0.354l-0.086,0.353l-0.085,0.355l-0.084,0.355l-0.082,0.355l-0.082,0.355l-0.08,0.356l-0.08,0.357l-0.078,0.357l-0.078,0.357l-0.076,0.358l-0.075,0.358l-0.074,0.358l-0.073,0.359l-0.072,0.359l-0.07,0.36l-0.07,0.36l-0.069,0.361l-0.067,0.36l-0.066,0.361l-0.066,0.362l-0.064,0.362l-0.063,0.362l-0.062,0.363l-0.061,0.363l-0.059,0.364l-0.059,0.364l-0.057,0.364l-0.057,0.365l-0.055,0.365l-0.054,0.365l-0.053,0.365l-0.052,0.367l-0.051,0.367l-0.049,0.366l-0.049,0.367l-0.047,0.368l-0.046,0.368l-0.046,0.368l-0.044,0.369l-0.042,0.369l-0.042,0.369l-0.041,0.37l-0.039,0.37l-0.038,0.371l-0.037,0.37l-0.036,0.371l-0.035,0.372l-0.034,0.372l-0.032,0.372l-0.032,0.372l-0.03,0.373l-0.029,0.373l-0.028,0.374l-0.026,0.373l-0.026,0.375l-0.024,0.374l-0.024,0.375l-0.022,0.375l-0.02,0.375l-0.02,0.376l-0.019,0.376l-0.017,0.377l-0.016,0.377l-0.015,0.377l-0.014,0.377l-0.012,0.378l-0.012,0.378l-0.01,0.378l-0.009,0.379l-0.008,0.378l-0.006,0.38l-0.006,0.38l-0.004,0.379l-0.003,0.38l-0.002,0.381l0,0.38l0,0.381l0.002,0.381l0.003,0.38l0.004,0.379l0.006,0.38l0.006,0.38l0.008,0.378l0.009,0.379l0.01,0.378l0.012,0.378l0.012,0.378l0.014,0.377l0.015,0.377l0.016,0.377l0.017,0.377l0.019,0.376l0.02,0.376l0.02,0.375l0.022,0.375l0.024,0.375l0.024,0.374l0.026,0.375l0.026,0.373l0.028,0.374l0.029,0.373l0.03,0.373l0.032,0.372l0.032,0.372l0.034,0.372l0.035,0.372l0.036,0.371l0.037,0.37l0.038,0.371l0.039,0.37l0.041,0.37l0.042,0.369l0.042,0.369l0.044,0.369l0.046,0.368l0.046,0.368l0.047,0.368l0.049,0.367l0.049,0.366l0.051,0.367l0.052,0.366l0.053,0.366l0.054,0.365l0.055,0.365l0.057,0.365l0.057,0.364l0.059,0.364l0.059,0.364l0.061,0.363l0.062,0.363l0.063,0.362l0.064,0.362l0.066,0.362l0.066,0.361l0.067,0.36l0.069,0.361l0.07,0.36l0.07,0.36l0.072,0.359l0.073,0.359l0.074,0.358l0.075,0.358l0.076,0.358l0.078,0.357l0.078,0.357l0.08,0.357l0.08,0.356l0.082,0.355l0.082,0.355l0.084,0.355l0.085,0.355l0.086,0.353l0.087,0.354l0.088,0.353l0.089,0.353l0.09,0.352l0.091,0.352l0.092,0.351l0.094,0.351l0.094,0.351l0.096,0.35l0.096,0.35l0.098,0.349l0.098,0.349l0.1,0.348l0.1,0.348l0.102,0.348l0.103,0.347l0.104,0.346l0.104,0.347l0.106,0.345l0.107,0.346l0.108,0.344l0.109,0.345l0.11,0.344l0.111,0.343l0.112,0.343l0.113,0.342l0.114,0.343l0.115,0.341l0.117,0.341l0.117,0.341l0.118,0.34l0.119,0.34l0.12,0.339l0.121,0.339l0.123,0.338l0.123,0.338l0.124,0.338l0.125,0.336l0.126,0.337l0.128,0.335l0.128,0.336l0.129,0.335l0.13,0.334l0.131,0.334l0.133,0.333l0.133,0.334l0.134,0.332l0.135,0.332l0.136,0.331l0.137,0.331l0.138,0.331l0.139,0.33l0.14,0.329l0.141,0.329l0.142,0.328l0.143,0.328l0.144,0.328l0.145,0.326l0.146,0.327l0.147,0.325l0.147,0.326l0.149,0.324l0.15,0.325l0.15,0.323l0.152,0.323l0.153,0.323l0.153,0.322l0.154,0.322l0.156,0.321l0.156,0.32l0.158,0.32l0.158,0.32l0.159,0.318l0.16,0.319l0.161,0.318l0.162,0.317l0.163,0.316l0.164,0.317l0.164,0.315l0.166,0.315l0.167,0.315l0.167,0.314l0.169,0.313l0.169,0.313l0.17,0.312l0.172,0.311l0.172,0.311l0.173,0.311l0.174,0.31l0.174,0.309l0.176,0.309l0.177,0.308l0.178,0.308l0.178,0.307l0.18,0.306l0.18,0.306l0.181,0.305l0.182,0.305l0.183,0.304l0.184,0.304l0.185,0.302l0.185,0.303l0.187,0.301l0.187,0.302l0.188,0.3l0.19,0.3l0.19,0.299l0.191,0.299l0.191,0.298l0.193,0.297l0.193,0.297l0.195,0.296l0.195,0.296l0.197,0.295l0.196,0.294l0.198,0.294l0.199,0.293l0.2,0.293l0.2,0.292l0.201,0.291l0.202,0.29l0.204,0.29l0.203,0.29l0.205,0.288l0.206,0.288l0.206,0.288l0.207,0.287l0.208,0.286l0.209,0.285l0.21,0.285l0.211,0.284l0.211,0.283l0.212,0.283l0.213,0.283l0.214,0.281l0.215,0.281l0.216,0.28l0.216,0.28l0.217,0.279l0.218,0.278l0.219,0.278l0.22,0.277l0.22,0.276l0.222,0.275l0.222,0.275l0.222,0.274l0.224,0.274l0.225,0.273l0.225,0.272l0.226,0.271l0.227,0.271l0.228,0.27l0.228,0.269l0.23,0.269l0.23,0.268l0.231,0.268l0.231,0.266l0.233,0.266l0.233,0.265l0.234,0.265l0.235,0.264l0.235,0.263l0.237,0.262l0.237,0.262l0.238,0.261l0.238,0.26l0.24,0.259l0.24,0.259l0.241,0.258l0.242,0.258l0.242,0.256l0.244,0.256l0.244,0.255l0.244,0.255l0.246,0.253l0.246,0.253l0.247,0.252l0.248,0.252l0.249,0.251l0.249,0.25l0.25,0.249l0.251,0.249l0.251,0.247l0.252,0.247l0.253,0.247l0.254,0.245l0.255,0.245l0.254,0.244l0.256,0.243l0.257,0.243l0.258,0.242l0.258,0.241l0.258,0.24l0.26,0.239l0.26,0.239l0.261,0.238l0.262,0.237l0.262,0.236l0.263,0.236l0.264,0.235l0.265,0.234l0.265,0.233l0.265,0.232l0.267,0.232l0.267,0.231l0.269,0.23l0.268,0.229l0.27,0.229l0.27,0.228l0.27,0.226l0.272,0.227l0.272,0.225l0.273,0.224l0.273,0.224l0.274,0.223l0.275,0.222l0.276,0.221l0.276,0.221l0.277,0.22l0.278,0.218l0.278,0.218l0.279,0.218l0.279,0.216l0.281,0.216l0.28,0.214l0.282,0.214l0.282,0.213l0.283,0.213l0.283,0.211l0.285,0.211l0.285,0.209l0.285,0.209l0.286,0.208l0.287,0.207l0.287,0.207l0.288,0.206l0.289,0.204l0.289,0.204l0.29,0.203l0.291,0.202l0.291,0.202l0.292,0.2l0.292,0.2l0.294,0.198l0.293,0.198l0.295,0.197l0.295,0.196l0.295,0.196l0.296,0.194l0.297,0.194l0.298,0.192l0.298,0.192l0.298,0.191l0.3,0.19l0.3,0.189l0.3,0.188l0.301,0.188l0.302,0.186l0.302,0.186l0.303,0.185l0.304,0.184l0.304,0.183l0.304,0.182l0.306,0.181l0.305,0.18l0.307,0.18l0.307,0.178l0.307,0.178l0.309,0.176l0.309,0.176l0.309,0.175l0.31,0.174l0.31,0.173l0.311,0.172l0.312,0.171l0.312,0.17l0.313,0.17l0.313,0.168l0.314,0.168l0.314,0.166l0.315,0.166l0.316,0.165l0.316,0.164l0.317,0.163l0.317,0.162l0.318,0.161l0.318,0.16l0.319,0.159l0.319,0.158l0.32,0.157l0.321,0.157l0.321,0.155l0.321,0.155l0.323,0.153l0.322,0.153l0.323,0.151l0.324,0.151l0.324,0.15l0.325,0.148l0.325,0.148l0.326,0.147l0.326,0.146l0.327,0.144l0.328,0.144l0.327,0.143l0.329,0.142l0.329,0.141l0.329,0.14l0.33,0.139l0.33,0.138l0.331,0.138l0.332,0.136l0.332,0.135l0.332,0.134l0.333,0.133l0.333,0.132l0.334,0.131l0.335,0.131l0.335,0.129l0.335,0.128l0.336,0.127l0.336,0.126l0.337,0.126l0.338,0.124l0.338,0.123l0.338,0.122l0.338,0.121l0.34,0.121l0.339,0.119l0.341,0.118l0.34,0.117l0.341,0.116l0.342,0.115l0.342,0.114l0.343,0.113l0.342,0.112l0.344,0.112l0.344,0.11l0.344,0.109l0.345,0.107l0.345,0.107l0.346,0.106l0.346,0.105l0.347,0.104l0.347,0.103l0.347,0.101l0.348,0.101l0.349,0.1l0.349,0.098l0.349,0.098l0.349,0.096l0.351,0.096l0.35,0.094l0.351,0.093l0.352,0.092l0.351,0.092l0.353,0.09l0.352,0.089l0.354,0.088l0.353,0.087l0.354,0.086l0.354,0.085l0.355,0.083l0.355,0.083l0.356,0.082l0.356,0.08l0.356,0.08l0.357,0.078l0.358,0.077l0.357,0.076l0.358,0.075l0.359,0.074l0.359,0.073l0.359,0.072l0.359,0.071l0.361,0.07l0.36,0.068l0.361,0.068l0.361,0.066l0.362,0.065l0.362,0.064l0.362,0.063l0.363,0.062l0.363,0.061l0.363,0.06l0.364,0.058l0.364,0.058l0.365,0.056l0.365,0.056l0.366,0.054l0.365,0.053l0.366,0.052l0.367,0.05l0.367,0.05l0.367,0.049l0.368,0.047l0.368,0.046l0.368,0.045l0.369,0.044l0.369,0.043l0.369,0.042l0.37,0.04l0.37,0.04l0.37,0.038l0.371,0.037l0.371,0.036l0.371,0.035l0.372,0.033l0.372,0.033l0.373,0.031l0.373,0.03l0.373,0.03l0.373,0.027l0.374,0.027l0.374,0.026l0.375,0.024l0.374,0.023l0.376,0.022l0.375,0.021l0.376,0.02l0.376,0.018l0.376,0.018l0.377,0.016l0.377,0.015l0.378,0.013l0.377,0.013l0.378,0.011l0.379,0.011l0.378,0.009l0.379,0.007l0.379,0.007l0.38,0.005l0.38,0.005l0.38,0.003l0.38,0.001l0.381,0.001Z" style="fill:#fff;"/><g><path d="M474.681,208.497c-1.415,0 -3.243,-0.177 -5.483,-0.53c-2.241,-0.354 -4.128,-0.826 -5.661,-1.415l2.123,-13.444c1.179,0.354 2.535,0.649 4.068,0.885c1.533,0.235 2.949,0.353 4.246,0.353c5.66,0 9.699,-1.739 12.116,-5.218c2.418,-3.479 3.627,-8.579 3.627,-15.3l0,-90.39l16.45,0l0,90.213c0,11.792 -2.683,20.548 -8.048,26.267c-5.366,5.72 -13.178,8.579 -23.438,8.579ZM497.853,66.811c-2.948,0 -5.454,-0.973 -7.517,-2.919c-2.064,-1.945 -3.096,-4.569 -3.096,-7.871c0,-3.302 1.032,-5.926 3.096,-7.872c2.063,-1.945 4.569,-2.918 7.517,-2.918c2.949,0 5.454,0.973 7.518,2.918c2.064,1.946 3.096,4.57 3.096,7.872c0,3.302 -1.032,5.926 -3.096,7.871c-2.064,1.946 -4.569,2.919 -7.518,2.919Z" style="fill:#318537;fill-rule:nonzero;"/><path d="M579.407,97.262l-40.45,-0.026l0,78.184l-16.45,0l0,-100.295c0,-11.793 2.889,-20.902 8.667,-27.329c5.779,-6.427 14.859,-9.641 27.241,-9.641c4.835,0 8.992,0.354 12.471,1.062c3.478,0.707 5.925,1.356 7.34,1.945l-3.007,14.151c-1.415,-0.707 -3.42,-1.385 -6.014,-2.034c-2.594,-0.648 -5.778,-0.973 -9.552,-0.973c-7.665,0 -13.03,2.093 -16.096,6.28c-3.066,4.186 -4.6,9.817 -4.6,16.892l0,7.96l40.45,-0.054l0,-12.887l18.499,19.826l-18.499,19.826l0,-12.887Z" style="fill:#318537;"/></g></g><g><path d="M6.843,176.562c-0.869,0 -1.992,-0.109 -3.367,-0.326c-1.376,-0.217 -2.535,-0.507 -3.476,-0.869l1.303,-8.254c0.724,0.217 1.557,0.398 2.498,0.543c0.942,0.145 1.811,0.217 2.607,0.217c3.476,0 5.956,-1.068 7.44,-3.204c1.484,-2.136 2.227,-5.268 2.227,-9.395l0,-55.5l10.1,0l0,55.392c0,7.24 -1.647,12.617 -4.941,16.128c-3.295,3.512 -8.092,5.268 -14.391,5.268ZM21.071,89.564c-1.811,0 -3.349,-0.597 -4.616,-1.792c-1.267,-1.195 -1.901,-2.806 -1.901,-4.833c0,-2.028 0.634,-3.639 1.901,-4.833c1.267,-1.195 2.805,-1.792 4.616,-1.792c1.81,0 3.349,0.597 4.616,1.792c1.267,1.194 1.9,2.805 1.9,4.833c0,2.027 -0.633,3.638 -1.9,4.833c-1.267,1.195 -2.806,1.792 -4.616,1.792Z" style="fill:#fff;fill-rule:nonzero;"/><path d="M53.654,156.252l-10.101,0l0,-56.478l10.101,0l0,56.478ZM48.549,89.564c-1.81,0 -3.348,-0.597 -4.616,-1.792c-1.267,-1.195 -1.9,-2.806 -1.9,-4.833c0,-2.028 0.633,-3.639 1.9,-4.833c1.268,-1.195 2.806,-1.792 4.616,-1.792c1.811,0 3.349,0.597 4.616,1.792c1.268,1.194 1.901,2.805 1.901,4.833c0,2.027 -0.633,3.638 -1.901,4.833c-1.267,1.195 -2.805,1.792 -4.616,1.792Z" style="fill:#fff;fill-rule:nonzero;"/><path d="M71.032,101.403c2.317,-0.579 5.376,-1.195 9.178,-1.847c3.801,-0.651 8.2,-0.977 13.196,-0.977c3.62,0 6.662,0.489 9.123,1.466c2.462,0.978 4.526,2.408 6.191,4.29c0.507,-0.362 1.304,-0.869 2.39,-1.52c1.086,-0.652 2.425,-1.285 4.018,-1.901c1.593,-0.615 3.367,-1.158 5.322,-1.629c1.955,-0.471 4.055,-0.706 6.3,-0.706c4.344,0 7.892,0.633 10.644,1.901c2.751,1.267 4.905,3.059 6.462,5.376c1.557,2.317 2.607,5.068 3.15,8.254c0.543,3.186 0.815,6.662 0.815,10.427l0,31.715l-10.101,0l0,-29.543c0,-3.33 -0.163,-6.191 -0.489,-8.58c-0.326,-2.389 -0.941,-4.381 -1.847,-5.974c-0.905,-1.593 -2.136,-2.769 -3.692,-3.53c-1.557,-0.76 -3.566,-1.14 -6.028,-1.14c-3.403,0 -6.209,0.453 -8.418,1.358c-2.208,0.905 -3.711,1.719 -4.507,2.443c0.579,1.883 1.014,3.947 1.303,6.191c0.29,2.245 0.435,4.598 0.435,7.06l0,31.715l-10.101,0l0,-29.543c0,-3.33 -0.181,-6.191 -0.543,-8.58c-0.362,-2.389 -0.996,-4.381 -1.901,-5.974c-0.905,-1.593 -2.136,-2.769 -3.693,-3.53c-1.556,-0.76 -3.53,-1.14 -5.919,-1.14c-1.014,0 -2.1,0.036 -3.258,0.109c-1.159,0.072 -2.263,0.163 -3.313,0.271c-1.05,0.109 -2.009,0.236 -2.878,0.38c-0.869,0.145 -1.448,0.254 -1.738,0.326l0,47.681l-10.101,0l0,-54.849Z" style="fill:#fff;fill-rule:nonzero;"/><path d="M174.648,102.272c1.231,-0.797 3.095,-1.629 5.593,-2.498c2.498,-0.869 5.376,-1.304 8.635,-1.304c4.055,0 7.657,0.724 10.807,2.173c3.149,1.448 5.81,3.475 7.983,6.082c2.172,2.606 3.819,5.72 4.941,9.34c1.123,3.621 1.684,7.603 1.684,11.948c0,4.561 -0.67,8.671 -2.009,12.327c-1.34,3.657 -3.241,6.752 -5.703,9.286c-2.461,2.535 -5.43,4.49 -8.906,5.865c-3.475,1.376 -7.385,2.064 -11.73,2.064c-4.706,0 -8.87,-0.326 -12.49,-0.977c-3.621,-0.652 -6.589,-1.304 -8.906,-1.955l0,-80.916l10.101,-1.738l0,30.303ZM174.648,147.454c1.013,0.29 2.443,0.561 4.29,0.815c1.846,0.253 4.145,0.38 6.897,0.38c5.43,0 9.775,-1.792 13.033,-5.376c3.258,-3.585 4.888,-8.671 4.888,-15.26c0,-2.897 -0.29,-5.612 -0.869,-8.146c-0.58,-2.534 -1.521,-4.725 -2.824,-6.571c-1.304,-1.847 -2.987,-3.295 -5.051,-4.345c-2.063,-1.05 -4.543,-1.575 -7.44,-1.575c-2.751,0 -5.285,0.471 -7.602,1.412c-2.317,0.942 -4.091,1.919 -5.322,2.933l0,35.733Z" style="fill:#fff;fill-rule:nonzero;"/><path d="M225.369,128.121c0,-4.996 0.724,-9.358 2.173,-13.087c1.448,-3.729 3.366,-6.825 5.756,-9.287c2.389,-2.462 5.141,-4.308 8.254,-5.539c3.114,-1.231 6.3,-1.846 9.558,-1.846c7.603,0 13.432,2.371 17.487,7.114c4.055,4.742 6.082,11.965 6.082,21.668c0,0.434 0,0.995 0,1.683c0,0.688 -0.036,1.322 -0.109,1.901l-38.665,0c0.434,5.865 2.136,10.318 5.104,13.359c2.969,3.041 7.603,4.562 13.903,4.562c3.548,0 6.534,-0.308 8.96,-0.923c2.426,-0.616 4.254,-1.213 5.485,-1.792l1.412,8.471c-1.231,0.652 -3.385,1.34 -6.462,2.064c-3.078,0.724 -6.571,1.086 -10.481,1.086c-4.924,0 -9.178,-0.742 -12.762,-2.226c-3.585,-1.485 -6.535,-3.53 -8.852,-6.137c-2.317,-2.607 -4.037,-5.702 -5.159,-9.286c-1.123,-3.585 -1.684,-7.513 -1.684,-11.785ZM264.144,122.582c0.072,-4.562 -1.068,-8.309 -3.422,-11.241c-2.353,-2.933 -5.593,-4.399 -9.72,-4.399c-2.317,0 -4.363,0.453 -6.137,1.358c-1.774,0.905 -3.276,2.081 -4.507,3.53c-1.231,1.448 -2.191,3.113 -2.879,4.996c-0.687,1.882 -1.14,3.801 -1.357,5.756l28.022,0Z" style="fill:#fff;fill-rule:nonzero;"/><path d="M310.086,98.579c0.869,0 1.865,0.054 2.987,0.163c1.123,0.108 2.227,0.253 3.313,0.434c1.086,0.181 2.082,0.362 2.987,0.543c0.905,0.181 1.575,0.344 2.009,0.489l-1.738,8.798c-0.796,-0.29 -2.118,-0.634 -3.964,-1.032c-1.847,-0.398 -4.218,-0.598 -7.114,-0.598c-1.883,0 -3.747,0.2 -5.594,0.598c-1.846,0.398 -3.059,0.67 -3.638,0.814l0,47.464l-10.101,0l0,-54.089c2.389,-0.869 5.358,-1.683 8.906,-2.444c3.548,-0.76 7.531,-1.14 11.947,-1.14Z" style="fill:#fff;fill-rule:nonzero;"/><path d="M328.007,128.121c0,-4.996 0.724,-9.358 2.173,-13.087c1.448,-3.729 3.367,-6.825 5.756,-9.287c2.389,-2.462 5.141,-4.308 8.254,-5.539c3.114,-1.231 6.3,-1.846 9.558,-1.846c7.603,0 13.432,2.371 17.487,7.114c4.055,4.742 6.082,11.965 6.082,21.668c0,0.434 0,0.995 0,1.683c0,0.688 -0.036,1.322 -0.109,1.901l-38.665,0c0.434,5.865 2.136,10.318 5.104,13.359c2.969,3.041 7.603,4.562 13.903,4.562c3.548,0 6.535,-0.308 8.96,-0.923c2.426,-0.616 4.254,-1.213 5.485,-1.792l1.412,8.471c-1.231,0.652 -3.385,1.34 -6.462,2.064c-3.078,0.724 -6.571,1.086 -10.481,1.086c-4.924,0 -9.178,-0.742 -12.762,-2.226c-3.584,-1.485 -6.535,-3.53 -8.852,-6.137c-2.317,-2.607 -4.037,-5.702 -5.159,-9.286c-1.123,-3.585 -1.684,-7.513 -1.684,-11.785ZM366.782,122.582c0.072,-4.562 -1.068,-8.309 -3.422,-11.241c-2.353,-2.933 -5.593,-4.399 -9.72,-4.399c-2.317,0 -4.363,0.453 -6.137,1.358c-1.774,0.905 -3.276,2.081 -4.507,3.53c-1.231,1.448 -2.191,3.113 -2.878,4.996c-0.688,1.882 -1.141,3.801 -1.358,5.756l28.022,0Z" style="fill:#fff;fill-rule:nonzero;"/></g><g><path d="M692.843,71.969c2.969,0 5.522,0.217 7.658,0.652c2.136,0.434 3.638,0.832 4.507,1.194l-1.846,8.689c-0.869,-0.434 -2.1,-0.85 -3.693,-1.249c-1.593,-0.398 -3.548,-0.597 -5.865,-0.597c-4.707,0 -8.001,1.285 -9.884,3.856c-1.883,2.57 -2.824,6.028 -2.824,10.372l0,4.888l21.722,0l0,8.471l-21.722,0l0,48.007l-10.101,0l0,-61.583c0,-7.241 1.774,-12.834 5.322,-16.781c3.548,-3.946 9.124,-5.919 16.726,-5.919Z" style="fill:#fff;fill-rule:nonzero;"/><path d="M757.685,154.623c-2.317,0.579 -5.377,1.194 -9.178,1.846c-3.802,0.652 -8.2,0.977 -13.196,0.977c-4.345,0 -8.001,-0.633 -10.97,-1.9c-2.969,-1.267 -5.358,-3.059 -7.169,-5.377c-1.81,-2.317 -3.113,-5.05 -3.91,-8.2c-0.796,-3.149 -1.194,-6.643 -1.194,-10.481l0,-31.714l10.101,0l0,29.542c0,6.879 1.086,11.802 3.258,14.771c2.172,2.969 5.829,4.453 10.97,4.453c1.086,0 2.208,-0.036 3.367,-0.108c1.158,-0.073 2.244,-0.163 3.258,-0.272c1.014,-0.108 1.937,-0.217 2.77,-0.326c0.832,-0.108 1.43,-0.235 1.792,-0.38l0,-47.68l10.101,0l0,54.849Z" style="fill:#fff;fill-rule:nonzero;"/><path d="M775.062,101.403c2.318,-0.579 5.395,-1.195 9.232,-1.847c3.838,-0.651 8.255,-0.977 13.251,-0.977c4.489,0 8.218,0.633 11.187,1.901c2.969,1.267 5.34,3.041 7.114,5.322c1.774,2.28 3.023,5.014 3.747,8.2c0.724,3.186 1.086,6.697 1.086,10.535l0,31.715l-10.101,0l0,-29.543c0,-3.475 -0.235,-6.444 -0.705,-8.906c-0.471,-2.462 -1.25,-4.453 -2.336,-5.973c-1.086,-1.521 -2.534,-2.625 -4.344,-3.313c-1.81,-0.688 -4.055,-1.032 -6.734,-1.032c-1.086,0 -2.208,0.036 -3.367,0.109c-1.159,0.072 -2.263,0.163 -3.313,0.271c-1.05,0.109 -1.991,0.236 -2.824,0.38c-0.832,0.145 -1.43,0.254 -1.792,0.326l0,47.681l-10.101,0l0,-54.849Z" style="fill:#fff;fill-rule:nonzero;"/><path d="M873.899,111.721c-1.231,-1.014 -3.005,-1.991 -5.322,-2.933c-2.317,-0.941 -4.851,-1.412 -7.603,-1.412c-2.896,0 -5.376,0.525 -7.44,1.575c-2.063,1.05 -3.747,2.498 -5.05,4.345c-1.303,1.846 -2.245,4.037 -2.824,6.571c-0.579,2.534 -0.869,5.249 -0.869,8.146c0,6.589 1.629,11.675 4.888,15.26c3.258,3.584 7.603,5.376 13.033,5.376c2.752,0 5.051,-0.127 6.897,-0.38c1.846,-0.254 3.276,-0.525 4.29,-0.815l0,-35.733ZM873.899,73.707l10.101,-1.738l0,82.654c-2.317,0.651 -5.286,1.303 -8.906,1.955c-3.621,0.651 -7.784,0.977 -12.491,0.977c-4.344,0 -8.254,-0.688 -11.73,-2.064c-3.475,-1.375 -6.444,-3.33 -8.906,-5.865c-2.462,-2.534 -4.362,-5.629 -5.702,-9.286c-1.339,-3.656 -2.009,-7.766 -2.009,-12.327c0,-4.345 0.561,-8.327 1.683,-11.948c1.123,-3.62 2.77,-6.734 4.942,-9.34c2.172,-2.607 4.833,-4.634 7.983,-6.082c3.15,-1.449 6.752,-2.173 10.807,-2.173c3.258,0 6.137,0.435 8.635,1.304c2.498,0.869 4.362,1.701 5.593,2.498l0,-28.565Z" style="fill:#fff;fill-rule:nonzero;"/></g></g></g></svg>