<?xml version="1.0" standalone="no"?><!DOCTYPE svg PUBLIC "-//W3C//DTD SVG 1.1//EN" "http://www.w3.org/Graphics/SVG/1.1/DTD/svg11.dtd"><svg width="100%" height="100%" viewBox="0 0 1000 1000" version="1.1" xmlns="http://www.w3.org/2000/svg" xmlns:xlink="http://www.w3.org/1999/xlink" xml:space="preserve" style="fill-rule:evenodd;clip-rule:evenodd;stroke-linejoin:round;stroke-miterlimit:1.41421;"><g id="Layer1"><g><circle cx="500" cy="500" r="500" style="fill:#fff;"/><clipPath id="_clip1"><circle cx="500" cy="500" r="500"/></clipPath><g clip-path="url(#_clip1)"><path d="M450.712,857.81c-48.597,-28.327 -59.677,-160.601 -56.379,-242.866l277.068,-392.875l372.911,270.514c33.138,343.978 -264.313,511.895 -355.317,538.689l-238.283,-173.462Z" style="fill:#e6e6e6;"/></g><g><path d="M605.419,727.108c0,-10.328 -8.386,-18.714 -18.715,-18.714l-173.408,0c-10.329,0 -18.715,8.386 -18.715,18.714c0,10.329 8.386,18.715 18.715,18.715l173.408,0c10.329,0 18.715,-8.386 18.715,-18.715Z" style="fill:#a6a6a6;"/><path d="M605.419,669.863c0,-10.329 -8.386,-18.714 -18.715,-18.714l-173.408,0c-10.329,0 -18.715,8.385 -18.715,18.714c0,10.329 8.386,18.714 18.715,18.714l173.408,0c10.329,0 18.715,-8.385 18.715,-18.714Z" style="fill:#a6a6a6;"/><path d="M605.419,783.273c0,-10.329 -8.386,-18.715 -18.715,-18.715l-173.408,0c-10.329,0 -18.715,8.386 -18.715,18.715c0,10.328 8.386,18.714 18.715,18.714l173.408,0c10.329,0 18.715,-8.386 18.715,-18.714Z" style="fill:#a6a6a6;"/><path d="M571.062,838.364c0,-10.329 -8.386,-18.715 -18.714,-18.715l-104.696,0c-10.328,0 -18.714,8.386 -18.714,18.715c0,10.328 8.386,18.714 18.714,18.714l104.696,0c10.328,0 18.714,-8.386 18.714,-18.714Z" style="fill:#a6a6a6;"/><path d="M388.136,621.47c-5.737,-1.335 1.896,-31.82 -1.83,-38.175c-24.408,-41.639 -113.959,-115.675 -113.959,-212.72c0,-125.645 102.008,-227.653 227.653,-227.653l1.471,0.005c124.969,0.792 226.182,102.493 226.182,227.648c0,97.045 -89.551,171.081 -113.959,212.72c-3.726,6.355 4.308,36.697 -1.83,38.175c-37.069,8.922 -184.66,9.092 -223.728,0Z" style="fill:#ccc;"/></g></g><path id="Shape_139_1_" d="M500.451,336.084c18.052,23.811 22.099,56.026 17.586,85.595c-0.312,-27.079 -1.09,-55.559 -15.563,-78.436c-2.179,35.95 7.937,71.9 24.745,103.804c2.957,-2.802 5.913,-5.759 8.87,-8.56c6.692,-6.381 16.03,-13.384 24.434,-9.338c5.447,2.646 7.937,9.338 7.314,15.407c-0.933,9.183 -8.559,17.12 -17.585,18.676c-9.027,1.556 -18.831,-3.58 -22.567,-11.984c-15.407,28.636 -22.566,61.162 -23.811,93.533c-1.185,27.395 1.754,54.901 6.553,81.953c0.08,0.454 0.243,1.486 0.243,1.486l-3.457,-0.02c0,0 -0.13,-0.853 -0.194,-1.218c-3.422,-19.371 -5.863,-38.879 -6.568,-58.546c-1.401,-39.062 4.357,-79.059 22.099,-113.764c3.579,-7.159 0.311,-16.808 -6.848,-20.387c-4.98,25.679 -17.741,49.957 -36.261,68.476c-0.623,0.623 -1.245,1.245 -1.556,2.023c-0.623,1.557 -0.156,3.269 0.311,4.825c11.554,37.931 15.056,78.138 10.506,117.47c-0.048,0.414 -0.142,1.121 -0.142,1.121l-3.532,0.02c0,0 0.106,-0.85 0.157,-1.275c4.893,-40.464 1.094,-82.011 -11.347,-120.916c-8.404,7.782 -22.877,6.381 -31.281,-1.556c-8.404,-7.781 -11.361,-20.231 -10.271,-31.748c0.467,-5.136 3.735,-11.672 8.87,-10.738c2.335,0.467 3.891,2.334 5.447,4.202c9.494,11.672 18.52,23.811 26.768,36.417c18.52,-12.762 27.858,-34.861 36.262,-55.715c3.268,-8.248 6.536,-17.586 3.112,-25.679c-11.516,-26.768 -15.718,-56.337 -12.294,-85.128M436.176,469.768c-0.467,2.49 -0.778,4.98 -0.933,7.47c-0.156,8.093 3.268,15.719 7.158,22.722c1.246,2.334 2.646,4.824 4.981,6.069c1.089,0.623 2.334,0.934 3.579,1.09c5.603,0.934 11.516,0.311 16.808,-1.712c0.934,-0.311 2.023,-0.934 2.179,-1.868c0,-0.778 -0.312,-1.4 -0.779,-1.867c-3.112,-4.513 -6.225,-8.871 -9.182,-13.228c-1.4,-2.024 -2.957,-4.202 -4.357,-6.226c-3.58,-5.135 -7.159,-10.271 -11.672,-14.784c-1.557,-1.401 -3.58,-2.957 -5.447,-2.023c-1.556,0.622 -2.023,2.645 -2.335,4.357M550.563,431.639c-1.09,0.467 -2.179,1.09 -3.268,1.868c-6.381,4.202 -11.984,9.493 -16.653,15.407c-0.311,0.311 -0.466,0.623 -0.622,0.934c-0.156,0.778 0.467,1.556 0.934,2.023c2.645,2.646 5.291,4.98 8.404,6.848c3.268,1.712 6.847,2.801 10.427,2.023c6.225,-1.09 10.738,-6.692 12.761,-12.606c0.934,-2.801 1.556,-5.603 1.712,-8.56c-0.467,-3.112 -2.334,-5.913 -5.136,-7.314c-2.334,-1.556 -5.758,-1.868 -8.559,-0.623" style="fill:#fff;fill-rule:nonzero;"/></g></svg>