<?xml version="1.0" standalone="no"?><!DOCTYPE svg PUBLIC "-//W3C//DTD SVG 1.1//EN" "http://www.w3.org/Graphics/SVG/1.1/DTD/svg11.dtd"><svg width="100%" height="100%" viewBox="0 0 1000 1000" version="1.1" xmlns="http://www.w3.org/2000/svg" xmlns:xlink="http://www.w3.org/1999/xlink" xml:space="preserve" style="fill-rule:evenodd;clip-rule:evenodd;stroke-linejoin:round;stroke-miterlimit:1.41421;"><g id="Layer1"><g><g><g><circle cx="500" cy="500" r="500" style="fill:#fff;"/><clipPath id="_clip1"><circle cx="500" cy="500" r="500"/></clipPath><g clip-path="url(#_clip1)"><path d="M397.416,853.715c0,0 111.033,-177.892 32.911,-312.989c-37.492,-64.837 -116.397,-205.546 -102.832,-249.618c6.209,-20.173 15.814,-40.497 28.697,-55.587c80.068,-93.788 266.163,-93.633 266.163,-93.633l529.924,423.507c95.656,352.008 -232.79,495.873 -479.912,493.222l-274.951,-204.902Z" style="fill:#e6e6e6;"/></g></g></g></g><path d="M460.218,499.486l14.771,332.554c0,14.5 -11.773,26.273 -26.274,26.273l-36.775,0c-14.501,0 -26.274,-11.773 -26.274,-26.273l14.771,-332.554l-18.538,0c-38.336,0 -69.459,-31.123 -69.459,-69.459l15.055,-138.919c0,-23.624 11.82,-44.51 29.863,-57.061l0,157.342c0,9.394 7.627,17.02 17.021,17.02c9.394,0 17.021,-7.626 17.021,-17.02l-0.229,-157.342c0,-6.021 4.888,-10.909 10.91,-10.909c6.021,0 10.909,4.888 10.909,10.909l0.317,157.342c0,9.394 7.626,17.02 17.02,17.02l0.11,0c9.344,-0.059 16.911,-7.663 16.911,-17.02l-0.357,-157.342c0,-6.021 4.888,-10.909 10.909,-10.909c6.022,0 10.91,4.888 10.91,10.909l0.445,157.342c0,9.394 7.627,17.02 17.021,17.02c9.394,0 17.02,-7.626 17.02,-17.02l0,-157.342c18.044,12.551 29.864,33.437 29.864,57.061l15.055,138.919c0,38.336 -31.124,69.459 -69.459,69.459l-18.538,0Z" style="fill:#ccc;"/><path d="M671.281,499.486l14.771,332.554c0,14.5 -11.773,26.273 -26.274,26.273l-36.775,0c-14.5,0 -26.273,-11.773 -26.273,-26.273l14.771,-332.554l0.92,-357.077c2.356,-0.694 8.387,-1.199 10.582,0c13.364,7.299 50.878,64.098 58.928,98.989c17.242,74.727 -10.625,257.925 -10.65,258.088Z" style="fill:#a6a6a6;"/></g></svg>