<?xml version="1.0" standalone="no"?><!DOCTYPE svg PUBLIC "-//W3C//DTD SVG 1.1//EN" "http://www.w3.org/Graphics/SVG/1.1/DTD/svg11.dtd"><svg width="100%" height="100%" viewBox="0 0 1000 1000" version="1.1" xmlns="http://www.w3.org/2000/svg" xmlns:xlink="http://www.w3.org/1999/xlink" xml:space="preserve" style="fill-rule:evenodd;clip-rule:evenodd;stroke-linejoin:round;stroke-miterlimit:1.41421;"><g id="Layer1"><g><g><circle cx="500" cy="500" r="500" style="fill:#fff;"/><clipPath id="_clip1"><circle cx="500" cy="500" r="500"/></clipPath><g clip-path="url(#_clip1)"><path d="M591.37,1071.54l-292.319,-216.698l-145.82,-113.158c0,0 362.673,-215.36 380.357,-272.814c44.8,-145.554 313.745,-136.079 313.745,-136.079l253.344,201.594c95.656,352.008 -262.185,539.806 -509.307,537.155Z" style="fill:#e6e6e6;"/></g></g></g><g><path d="M526.292,742.374l-52.584,0c-108.676,-59.055 -214.799,-28.461 -320.984,0l0,-410.19c108.924,-29.903 217.875,-46.359 326.954,0l40.644,0c109.079,-46.359 218.03,-29.903 326.954,0l0,410.19c-106.185,-28.461 -212.308,-59.055 -320.984,0Z" style="fill:#a6a6a6;"/><g><path d="M199.69,292.526c107.847,-43.295 210.331,-63.169 283.971,42.905l0,361.663c-73.64,-106.074 -176.124,-86.2 -283.971,-42.905l0,-361.663Z" style="fill:#ccc;"/><path d="M800.31,292.526c-107.847,-43.295 -210.331,-63.169 -283.971,42.905l0,361.663c73.64,-106.074 176.124,-86.2 283.971,-42.905l0,-361.663Z" style="fill:#ccc;"/></g></g></g></svg>