<?xml version="1.0" standalone="no"?><!DOCTYPE svg PUBLIC "-//W3C//DTD SVG 1.1//EN" "http://www.w3.org/Graphics/SVG/1.1/DTD/svg11.dtd"><svg width="100%" height="100%" viewBox="0 0 1000 1000" version="1.1" xmlns="http://www.w3.org/2000/svg" xmlns:xlink="http://www.w3.org/1999/xlink" xml:space="preserve" style="fill-rule:evenodd;clip-rule:evenodd;stroke-linejoin:round;stroke-miterlimit:1.41421;"><g id="Layer1"><g><g><g><circle cx="500" cy="500" r="500" style="fill:#fff;"/><clipPath id="_clip1"><circle cx="500" cy="500" r="500"/></clipPath><g clip-path="url(#_clip1)"><path d="M647.492,1015.42l-292.319,-216.698c0,0 144.67,-220.213 178.415,-329.85c44.8,-145.554 -30.64,-310.138 -30.64,-310.138l542.053,431.329c95.656,352.008 -150.387,428.008 -397.509,425.357Z" style="fill:#e6e6e6;"/></g></g></g></g><path d="M500,154.689c0,0 -243.314,313.116 -243.314,447.308c0,134.289 109.025,243.314 243.314,243.314c134.289,0 243.314,-109.025 243.314,-243.314c0,-134.192 -243.314,-447.308 -243.314,-447.308Z" style="fill:#a6a6a6;"/><clipPath id="_clip2"><path d="M500,154.689c0,0 -243.314,313.116 -243.314,447.308c0,134.289 109.025,243.314 243.314,243.314c134.289,0 243.314,-109.025 243.314,-243.314c0,-134.192 -243.314,-447.308 -243.314,-447.308Z"/></clipPath><g clip-path="url(#_clip2)"><path d="M499.682,154.654c0,0 -199.121,293.623 -199.121,427.816c0,134.288 109.025,243.314 243.314,243.314c134.288,0 243.314,-109.026 243.314,-243.314c0,-134.193 -287.507,-427.816 -287.507,-427.816Z" style="fill:#ccc;"/></g></g></svg>