<?xml version="1.0" standalone="no"?><!DOCTYPE svg PUBLIC "-//W3C//DTD SVG 1.1//EN" "http://www.w3.org/Graphics/SVG/1.1/DTD/svg11.dtd"><svg width="100%" height="100%" viewBox="0 0 1000 1000" version="1.1" xmlns="http://www.w3.org/2000/svg" xmlns:xlink="http://www.w3.org/1999/xlink" xml:space="preserve" style="fill-rule:evenodd;clip-rule:evenodd;stroke-linejoin:round;stroke-miterlimit:1.41421;"><g id="Layer1"><g><g><circle cx="500" cy="500" r="500" style="fill:#fff;"/><clipPath id="_clip1"><circle cx="500" cy="500" r="500"/></clipPath><g clip-path="url(#_clip1)"><path d="M794.372,1082.81l-323.43,-240.217l24.57,-366.233c0,0 -198.55,-207.25 -150.082,-232.635c113.62,-59.511 296.33,-37.728 296.33,-37.728l380.513,306.012c115.055,423.396 69.338,573.989 -227.901,570.801Z" style="fill:#e6e6e6;"/></g></g></g><g><circle cx="501.397" cy="382.903" r="210.23" style="fill:#a6a6a6;"/><path d="M529.381,738.997l0,103.739l-58.762,0l0,-103.739l-75.903,0l0,-58.761l75.903,0l0,-67.998c-112.215,-14.435 -199.044,-110.432 -199.044,-226.549c0,-126.071 102.354,-228.425 228.425,-228.425c126.071,0 228.425,102.354 228.425,228.425c0,116.117 -86.829,212.114 -199.044,226.549l0,67.998l75.903,0l0,58.761l-75.903,0ZM500,216.769c93.229,0 168.92,75.691 168.92,168.92c0,93.229 -75.691,168.92 -168.92,168.92c-93.229,0 -168.92,-75.691 -168.92,-168.92c0,-93.229 75.691,-168.92 168.92,-168.92Z" style="fill:#ccc;"/></g></g></svg>