<?xml version="1.0" standalone="no"?>
<!DOCTYPE svg PUBLIC "-//W3C//DTD SVG 20010904//EN"
 "http://www.w3.org/TR/2001/REC-SVG-20010904/DTD/svg10.dtd">
<svg version="1.0" xmlns="http://www.w3.org/2000/svg"
 width="1000.000000pt" height="1000.000000pt" viewBox="0 0 1000.000000 1000.000000"
 preserveAspectRatio="xMidYMid meet">
<metadata>
Created by potrace 1.11, written by Peter Selinger 2001-2013
</metadata>
<g transform="translate(0.000000,1000.000000) scale(0.100000,-0.100000)"
fill="#000000" stroke="none">
<path d="M4680 9989 c-1966 -126 -3671 -1393 -4364 -3243 -377 -1006 -416
-2118 -111 -3164 470 -1609 1768 -2907 3377 -3377 1769 -516 3654 -36 4952
1261 998 998 1530 2372 1458 3767 -60 1164 -482 2207 -1243 3072 -1019 1159
-2527 1783 -4069 1684z m1290 -1284 c146 -21 460 -92 476 -108 2 -2 -30 -107
-72 -235 -50 -157 -79 -232 -89 -232 -7 0 -26 5 -42 11 -122 46 -377 90 -528
90 -365 1 -550 -170 -631 -581 -15 -74 -18 -188 -21 -902 l-4 -818 -295 0
-295 0 4 823 c3 789 4 827 25 942 64 358 187 600 391 772 155 129 388 220 631
246 97 10 349 6 450 -8z m947 -3206 c411 -237 754 -437 761 -444 11 -10 -134
-97 -750 -453 l-763 -440 -3 294 -2 294 -1670 0 -1670 0 0 295 0 295 1668 2
1667 3 3 293 c1 160 4 292 6 292 3 0 341 -194 753 -431z m-1847 -2041 c0 -387
-5 -766 -10 -843 -55 -775 -408 -1175 -1091 -1236 -222 -20 -473 7 -761 83
-65 17 -118 36 -118 42 1 33 149 461 159 458 6 -1 71 -18 144 -37 417 -109
695 -80 866 92 71 72 112 143 150 260 62 190 64 218 68 1091 l4 792 295 0 294
0 0 -702z"/>
</g>
</svg>
