<?xml version="1.0" standalone="no"?>
<!DOCTYPE svg PUBLIC "-//W3C//DTD SVG 20010904//EN"
 "http://www.w3.org/TR/2001/REC-SVG-20010904/DTD/svg10.dtd">
<svg version="1.0" xmlns="http://www.w3.org/2000/svg"
 width="500.000000pt" height="500.000000pt" viewBox="0 0 500.000000 500.000000"
 preserveAspectRatio="xMidYMid meet">
<metadata>
Created by potrace 1.11, written by Peter Selinger 2001-2013
</metadata>
<g transform="translate(0.000000,500.000000) scale(0.100000,-0.100000)"
fill="#000000" stroke="none">
<path d="M2305 4995 c-11 -2 -67 -9 -125 -15 -149 -17 -312 -55 -480 -112
-867 -295 -1501 -1037 -1664 -1948 -27 -149 -39 -410 -26 -581 16 -234 26
-295 70 -464 145 -551 463 -1032 900 -1365 354 -268 725 -427 1148 -490 190
-29 580 -28 772 0 239 36 463 105 690 213 673 319 1174 929 1359 1657 11 41
22 93 26 115 3 22 10 67 15 100 13 77 13 716 1 781 -5 27 -12 69 -16 94 -11
81 -64 265 -113 396 -121 319 -307 614 -542 858 -383 398 -887 659 -1430 741
-95 15 -531 29 -585 20z m545 -190 c601 -85 1157 -418 1533 -917 329 -436 499
-1011 458 -1540 -47 -594 -273 -1092 -680 -1499 -366 -366 -829 -597 -1336
-665 -257 -34 -633 -16 -857 41 -381 98 -759 298 -1013 534 -375 350 -588 706
-715 1196 -77 297 -78 768 -4 1070 66 265 192 551 343 776 110 163 141 200
301 358 303 299 646 492 1067 601 96 25 161 36 393 64 73 9 400 -3 510 -19z"/>
<path d="M2225 4674 c-271 -36 -531 -120 -752 -240 -277 -151 -532 -367 -702
-595 -34 -46 -68 -91 -74 -99 -120 -152 -298 -558 -332 -760 -4 -19 -13 -71
-21 -115 -44 -248 -40 -522 12 -800 91 -487 368 -948 764 -1271 543 -443 1265
-598 1960 -421 322 83 650 262 909 497 152 139 237 238 352 408 180 268 283
529 345 877 23 125 26 525 6 650 -67 406 -195 710 -433 1025 -90 119 -256 290
-369 381 -248 199 -602 368 -899 430 -238 50 -546 63 -766 33z"/>
</g>
</svg>
